M48
; DRILL file KiCad 10.0.3 date 2026-05-26T16:26:16
; FORMAT={-:-/ absolute / metric / decimal}
; #@! TF.CreationDate,2026-05-26T16:26:16-05:00
; #@! TF.GenerationSoftware,Kicad,Pcbnew,10.0.3
; #@! TF.FileFunction,Plated,1,2,PTH
FMAT,2
METRIC
; #@! TA.AperFunction,Plated,PTH,ComponentDrill
T1C0.800
; #@! TA.AperFunction,Plated,PTH,ComponentDrill
T2C1.000
%
G90
G05
T1
X6.46Y-36.75
X6.46Y-40.75
X9.46Y-4.79
X11.46Y-4.79
X14.08Y-36.75
X14.08Y-40.75
T2
X3.92Y-46.21
X6.46Y-12.29
X6.46Y-29.29
X6.46Y-46.21
X13.38Y-46.21
X14.46Y-12.29
X14.46Y-29.29
X15.92Y-46.21
X23.3Y-4.79
X23.3Y-7.33
X23.3Y-9.87
X23.3Y-12.41
X23.3Y-14.95
X23.3Y-17.49
X23.3Y-20.03
X23.3Y-22.57
X23.3Y-25.11
X23.3Y-27.65
X23.3Y-30.19
X23.3Y-32.73
X23.3Y-35.27
X23.3Y-37.81
X23.3Y-40.35
X26.84Y-46.21
X29.38Y-46.21
X31.92Y-46.21
X34.46Y-46.21
X38.54Y-4.79
X38.54Y-7.33
X38.54Y-9.87
X38.54Y-12.41
X38.54Y-14.95
X38.54Y-17.49
X38.54Y-20.03
X38.54Y-22.57
X38.54Y-25.11
X38.54Y-27.65
X38.54Y-30.19
X38.54Y-32.73
X38.54Y-35.27
X38.54Y-37.81
X38.54Y-40.35
M30
