%TF.GenerationSoftware,KiCad,Pcbnew,10.0.3*%
%TF.CreationDate,2026-05-26T16:26:13-05:00*%
%TF.ProjectId,master,6d617374-6572-42e6-9b69-6361645f7063,1.0*%
%TF.SameCoordinates,Original*%
%TF.FileFunction,Soldermask,Top*%
%TF.FilePolarity,Negative*%
%FSLAX46Y46*%
G04 Gerber Fmt 4.6, Leading zero omitted, Abs format (unit mm)*
G04 Created by KiCad (PCBNEW 10.0.3) date 2026-05-26 16:26:13*
%MOMM*%
%LPD*%
G01*
G04 APERTURE LIST*
%ADD10R,1.700000X1.700000*%
%ADD11C,1.700000*%
%ADD12R,1.600000X1.600000*%
%ADD13C,1.600000*%
G04 APERTURE END LIST*
D10*
%TO.C,U1*%
X23300000Y-4790000D03*
D11*
X23300000Y-7330000D03*
X23300000Y-9870000D03*
X23300000Y-12410000D03*
X23300000Y-14950000D03*
X23300000Y-17490000D03*
X23300000Y-20030000D03*
X23300000Y-22570000D03*
X23300000Y-25110000D03*
X23300000Y-27650000D03*
X23300000Y-30190000D03*
X23300000Y-32730000D03*
X23300000Y-35270000D03*
X23300000Y-37810000D03*
X23300000Y-40350000D03*
X38540000Y-4790000D03*
X38540000Y-7330000D03*
X38540000Y-9870000D03*
X38540000Y-12410000D03*
X38540000Y-14950000D03*
X38540000Y-17490000D03*
X38540000Y-20030000D03*
X38540000Y-22570000D03*
X38540000Y-25110000D03*
X38540000Y-27650000D03*
X38540000Y-30190000D03*
X38540000Y-32730000D03*
X38540000Y-35270000D03*
X38540000Y-37810000D03*
X38540000Y-40350000D03*
%TD*%
D10*
%TO.C,U2*%
X6460000Y-29290000D03*
D11*
X14460000Y-29290000D03*
X6460000Y-12290000D03*
X14460000Y-12290000D03*
%TD*%
D10*
%TO.C,J1*%
X3920000Y-46210000D03*
D11*
X6460000Y-46210000D03*
%TD*%
D10*
%TO.C,J2*%
X13380000Y-46210000D03*
D11*
X15920000Y-46210000D03*
%TD*%
D10*
%TO.C,J3*%
X26840000Y-46210000D03*
D11*
X29380000Y-46210000D03*
X31920000Y-46210000D03*
X34460000Y-46210000D03*
%TD*%
D12*
%TO.C,R1*%
X6460000Y-36750000D03*
D13*
X14080000Y-36750000D03*
%TD*%
D12*
%TO.C,R2*%
X6460000Y-40750000D03*
D13*
X14080000Y-40750000D03*
%TD*%
D12*
%TO.C,C1*%
X9460000Y-4790000D03*
D13*
X11460000Y-4790000D03*
%TD*%
M02*
