%TF.GenerationSoftware,KiCad,Pcbnew,10.0.3*%
%TF.CreationDate,2026-05-26T16:26:13-05:00*%
%TF.ProjectId,master,6d617374-6572-42e6-9b69-6361645f7063,1.0*%
%TF.SameCoordinates,Original*%
%TF.FileFunction,Legend,Top*%
%TF.FilePolarity,Positive*%
%FSLAX46Y46*%
G04 Gerber Fmt 4.6, Leading zero omitted, Abs format (unit mm)*
G04 Created by KiCad (PCBNEW 10.0.3) date 2026-05-26 16:26:13*
%MOMM*%
%LPD*%
G01*
G04 APERTURE LIST*
%ADD10C,0.150000*%
%ADD11C,0.120000*%
G04 APERTURE END LIST*
D10*
X30158095Y-1244819D02*
X30158095Y-2054342D01*
X30158095Y-2054342D02*
X30205714Y-2149580D01*
X30205714Y-2149580D02*
X30253333Y-2197200D01*
X30253333Y-2197200D02*
X30348571Y-2244819D01*
X30348571Y-2244819D02*
X30539047Y-2244819D01*
X30539047Y-2244819D02*
X30634285Y-2197200D01*
X30634285Y-2197200D02*
X30681904Y-2149580D01*
X30681904Y-2149580D02*
X30729523Y-2054342D01*
X30729523Y-2054342D02*
X30729523Y-1244819D01*
X31729523Y-2244819D02*
X31158095Y-2244819D01*
X31443809Y-2244819D02*
X31443809Y-1244819D01*
X31443809Y-1244819D02*
X31348571Y-1387676D01*
X31348571Y-1387676D02*
X31253333Y-1482914D01*
X31253333Y-1482914D02*
X31158095Y-1530533D01*
X9698095Y-8244819D02*
X9698095Y-9054342D01*
X9698095Y-9054342D02*
X9745714Y-9149580D01*
X9745714Y-9149580D02*
X9793333Y-9197200D01*
X9793333Y-9197200D02*
X9888571Y-9244819D01*
X9888571Y-9244819D02*
X10079047Y-9244819D01*
X10079047Y-9244819D02*
X10174285Y-9197200D01*
X10174285Y-9197200D02*
X10221904Y-9149580D01*
X10221904Y-9149580D02*
X10269523Y-9054342D01*
X10269523Y-9054342D02*
X10269523Y-8244819D01*
X10698095Y-8340057D02*
X10745714Y-8292438D01*
X10745714Y-8292438D02*
X10840952Y-8244819D01*
X10840952Y-8244819D02*
X11079047Y-8244819D01*
X11079047Y-8244819D02*
X11174285Y-8292438D01*
X11174285Y-8292438D02*
X11221904Y-8340057D01*
X11221904Y-8340057D02*
X11269523Y-8435295D01*
X11269523Y-8435295D02*
X11269523Y-8530533D01*
X11269523Y-8530533D02*
X11221904Y-8673390D01*
X11221904Y-8673390D02*
X10650476Y-9244819D01*
X10650476Y-9244819D02*
X11269523Y-9244819D01*
X8293333Y-33244819D02*
X7817143Y-33244819D01*
X7817143Y-33244819D02*
X7817143Y-32244819D01*
X8626667Y-33244819D02*
X8626667Y-32244819D01*
X8626667Y-32244819D02*
X8960000Y-32959104D01*
X8960000Y-32959104D02*
X9293333Y-32244819D01*
X9293333Y-32244819D02*
X9293333Y-33244819D01*
X9721905Y-32340057D02*
X9769524Y-32292438D01*
X9769524Y-32292438D02*
X9864762Y-32244819D01*
X9864762Y-32244819D02*
X10102857Y-32244819D01*
X10102857Y-32244819D02*
X10198095Y-32292438D01*
X10198095Y-32292438D02*
X10245714Y-32340057D01*
X10245714Y-32340057D02*
X10293333Y-32435295D01*
X10293333Y-32435295D02*
X10293333Y-32530533D01*
X10293333Y-32530533D02*
X10245714Y-32673390D01*
X10245714Y-32673390D02*
X9674286Y-33244819D01*
X9674286Y-33244819D02*
X10293333Y-33244819D01*
X11198095Y-32244819D02*
X10721905Y-32244819D01*
X10721905Y-32244819D02*
X10674286Y-32721009D01*
X10674286Y-32721009D02*
X10721905Y-32673390D01*
X10721905Y-32673390D02*
X10817143Y-32625771D01*
X10817143Y-32625771D02*
X11055238Y-32625771D01*
X11055238Y-32625771D02*
X11150476Y-32673390D01*
X11150476Y-32673390D02*
X11198095Y-32721009D01*
X11198095Y-32721009D02*
X11245714Y-32816247D01*
X11245714Y-32816247D02*
X11245714Y-33054342D01*
X11245714Y-33054342D02*
X11198095Y-33149580D01*
X11198095Y-33149580D02*
X11150476Y-33197200D01*
X11150476Y-33197200D02*
X11055238Y-33244819D01*
X11055238Y-33244819D02*
X10817143Y-33244819D01*
X10817143Y-33244819D02*
X10721905Y-33197200D01*
X10721905Y-33197200D02*
X10674286Y-33149580D01*
X11721905Y-33244819D02*
X11912381Y-33244819D01*
X11912381Y-33244819D02*
X12007619Y-33197200D01*
X12007619Y-33197200D02*
X12055238Y-33149580D01*
X12055238Y-33149580D02*
X12150476Y-33006723D01*
X12150476Y-33006723D02*
X12198095Y-32816247D01*
X12198095Y-32816247D02*
X12198095Y-32435295D01*
X12198095Y-32435295D02*
X12150476Y-32340057D01*
X12150476Y-32340057D02*
X12102857Y-32292438D01*
X12102857Y-32292438D02*
X12007619Y-32244819D01*
X12007619Y-32244819D02*
X11817143Y-32244819D01*
X11817143Y-32244819D02*
X11721905Y-32292438D01*
X11721905Y-32292438D02*
X11674286Y-32340057D01*
X11674286Y-32340057D02*
X11626667Y-32435295D01*
X11626667Y-32435295D02*
X11626667Y-32673390D01*
X11626667Y-32673390D02*
X11674286Y-32768628D01*
X11674286Y-32768628D02*
X11721905Y-32816247D01*
X11721905Y-32816247D02*
X11817143Y-32863866D01*
X11817143Y-32863866D02*
X12007619Y-32863866D01*
X12007619Y-32863866D02*
X12102857Y-32816247D01*
X12102857Y-32816247D02*
X12150476Y-32768628D01*
X12150476Y-32768628D02*
X12198095Y-32673390D01*
X13055238Y-32244819D02*
X12864762Y-32244819D01*
X12864762Y-32244819D02*
X12769524Y-32292438D01*
X12769524Y-32292438D02*
X12721905Y-32340057D01*
X12721905Y-32340057D02*
X12626667Y-32482914D01*
X12626667Y-32482914D02*
X12579048Y-32673390D01*
X12579048Y-32673390D02*
X12579048Y-33054342D01*
X12579048Y-33054342D02*
X12626667Y-33149580D01*
X12626667Y-33149580D02*
X12674286Y-33197200D01*
X12674286Y-33197200D02*
X12769524Y-33244819D01*
X12769524Y-33244819D02*
X12960000Y-33244819D01*
X12960000Y-33244819D02*
X13055238Y-33197200D01*
X13055238Y-33197200D02*
X13102857Y-33149580D01*
X13102857Y-33149580D02*
X13150476Y-33054342D01*
X13150476Y-33054342D02*
X13150476Y-32816247D01*
X13150476Y-32816247D02*
X13102857Y-32721009D01*
X13102857Y-32721009D02*
X13055238Y-32673390D01*
X13055238Y-32673390D02*
X12960000Y-32625771D01*
X12960000Y-32625771D02*
X12769524Y-32625771D01*
X12769524Y-32625771D02*
X12674286Y-32673390D01*
X12674286Y-32673390D02*
X12626667Y-32721009D01*
X12626667Y-32721009D02*
X12579048Y-32816247D01*
X4856666Y-43164819D02*
X4856666Y-43879104D01*
X4856666Y-43879104D02*
X4809047Y-44021961D01*
X4809047Y-44021961D02*
X4713809Y-44117200D01*
X4713809Y-44117200D02*
X4570952Y-44164819D01*
X4570952Y-44164819D02*
X4475714Y-44164819D01*
X5856666Y-44164819D02*
X5285238Y-44164819D01*
X5570952Y-44164819D02*
X5570952Y-43164819D01*
X5570952Y-43164819D02*
X5475714Y-43307676D01*
X5475714Y-43307676D02*
X5380476Y-43402914D01*
X5380476Y-43402914D02*
X5285238Y-43450533D01*
X2809048Y-49164819D02*
X3428095Y-49164819D01*
X3428095Y-49164819D02*
X3094762Y-49545771D01*
X3094762Y-49545771D02*
X3237619Y-49545771D01*
X3237619Y-49545771D02*
X3332857Y-49593390D01*
X3332857Y-49593390D02*
X3380476Y-49641009D01*
X3380476Y-49641009D02*
X3428095Y-49736247D01*
X3428095Y-49736247D02*
X3428095Y-49974342D01*
X3428095Y-49974342D02*
X3380476Y-50069580D01*
X3380476Y-50069580D02*
X3332857Y-50117200D01*
X3332857Y-50117200D02*
X3237619Y-50164819D01*
X3237619Y-50164819D02*
X2951905Y-50164819D01*
X2951905Y-50164819D02*
X2856667Y-50117200D01*
X2856667Y-50117200D02*
X2809048Y-50069580D01*
X4285238Y-49164819D02*
X4094762Y-49164819D01*
X4094762Y-49164819D02*
X3999524Y-49212438D01*
X3999524Y-49212438D02*
X3951905Y-49260057D01*
X3951905Y-49260057D02*
X3856667Y-49402914D01*
X3856667Y-49402914D02*
X3809048Y-49593390D01*
X3809048Y-49593390D02*
X3809048Y-49974342D01*
X3809048Y-49974342D02*
X3856667Y-50069580D01*
X3856667Y-50069580D02*
X3904286Y-50117200D01*
X3904286Y-50117200D02*
X3999524Y-50164819D01*
X3999524Y-50164819D02*
X4190000Y-50164819D01*
X4190000Y-50164819D02*
X4285238Y-50117200D01*
X4285238Y-50117200D02*
X4332857Y-50069580D01*
X4332857Y-50069580D02*
X4380476Y-49974342D01*
X4380476Y-49974342D02*
X4380476Y-49736247D01*
X4380476Y-49736247D02*
X4332857Y-49641009D01*
X4332857Y-49641009D02*
X4285238Y-49593390D01*
X4285238Y-49593390D02*
X4190000Y-49545771D01*
X4190000Y-49545771D02*
X3999524Y-49545771D01*
X3999524Y-49545771D02*
X3904286Y-49593390D01*
X3904286Y-49593390D02*
X3856667Y-49641009D01*
X3856667Y-49641009D02*
X3809048Y-49736247D01*
X4666191Y-49164819D02*
X4999524Y-50164819D01*
X4999524Y-50164819D02*
X5332857Y-49164819D01*
X5428096Y-50260057D02*
X6190000Y-50260057D01*
X6428096Y-50164819D02*
X6428096Y-49164819D01*
X6904286Y-50164819D02*
X6904286Y-49164819D01*
X6904286Y-49164819D02*
X7475714Y-50164819D01*
X7475714Y-50164819D02*
X7475714Y-49164819D01*
X14316666Y-43164819D02*
X14316666Y-43879104D01*
X14316666Y-43879104D02*
X14269047Y-44021961D01*
X14269047Y-44021961D02*
X14173809Y-44117200D01*
X14173809Y-44117200D02*
X14030952Y-44164819D01*
X14030952Y-44164819D02*
X13935714Y-44164819D01*
X14745238Y-43260057D02*
X14792857Y-43212438D01*
X14792857Y-43212438D02*
X14888095Y-43164819D01*
X14888095Y-43164819D02*
X15126190Y-43164819D01*
X15126190Y-43164819D02*
X15221428Y-43212438D01*
X15221428Y-43212438D02*
X15269047Y-43260057D01*
X15269047Y-43260057D02*
X15316666Y-43355295D01*
X15316666Y-43355295D02*
X15316666Y-43450533D01*
X15316666Y-43450533D02*
X15269047Y-43593390D01*
X15269047Y-43593390D02*
X14697619Y-44164819D01*
X14697619Y-44164819D02*
X15316666Y-44164819D01*
X12649999Y-49164819D02*
X12173809Y-49164819D01*
X12173809Y-49164819D02*
X12126190Y-49641009D01*
X12126190Y-49641009D02*
X12173809Y-49593390D01*
X12173809Y-49593390D02*
X12269047Y-49545771D01*
X12269047Y-49545771D02*
X12507142Y-49545771D01*
X12507142Y-49545771D02*
X12602380Y-49593390D01*
X12602380Y-49593390D02*
X12649999Y-49641009D01*
X12649999Y-49641009D02*
X12697618Y-49736247D01*
X12697618Y-49736247D02*
X12697618Y-49974342D01*
X12697618Y-49974342D02*
X12649999Y-50069580D01*
X12649999Y-50069580D02*
X12602380Y-50117200D01*
X12602380Y-50117200D02*
X12507142Y-50164819D01*
X12507142Y-50164819D02*
X12269047Y-50164819D01*
X12269047Y-50164819D02*
X12173809Y-50117200D01*
X12173809Y-50117200D02*
X12126190Y-50069580D01*
X12983333Y-49164819D02*
X13316666Y-50164819D01*
X13316666Y-50164819D02*
X13649999Y-49164819D01*
X13745238Y-50260057D02*
X14507142Y-50260057D01*
X14935714Y-49164819D02*
X15126190Y-49164819D01*
X15126190Y-49164819D02*
X15221428Y-49212438D01*
X15221428Y-49212438D02*
X15316666Y-49307676D01*
X15316666Y-49307676D02*
X15364285Y-49498152D01*
X15364285Y-49498152D02*
X15364285Y-49831485D01*
X15364285Y-49831485D02*
X15316666Y-50021961D01*
X15316666Y-50021961D02*
X15221428Y-50117200D01*
X15221428Y-50117200D02*
X15126190Y-50164819D01*
X15126190Y-50164819D02*
X14935714Y-50164819D01*
X14935714Y-50164819D02*
X14840476Y-50117200D01*
X14840476Y-50117200D02*
X14745238Y-50021961D01*
X14745238Y-50021961D02*
X14697619Y-49831485D01*
X14697619Y-49831485D02*
X14697619Y-49498152D01*
X14697619Y-49498152D02*
X14745238Y-49307676D01*
X14745238Y-49307676D02*
X14840476Y-49212438D01*
X14840476Y-49212438D02*
X14935714Y-49164819D01*
X15792857Y-49164819D02*
X15792857Y-49974342D01*
X15792857Y-49974342D02*
X15840476Y-50069580D01*
X15840476Y-50069580D02*
X15888095Y-50117200D01*
X15888095Y-50117200D02*
X15983333Y-50164819D01*
X15983333Y-50164819D02*
X16173809Y-50164819D01*
X16173809Y-50164819D02*
X16269047Y-50117200D01*
X16269047Y-50117200D02*
X16316666Y-50069580D01*
X16316666Y-50069580D02*
X16364285Y-49974342D01*
X16364285Y-49974342D02*
X16364285Y-49164819D01*
X16697619Y-49164819D02*
X17269047Y-49164819D01*
X16983333Y-50164819D02*
X16983333Y-49164819D01*
X30316666Y-43164819D02*
X30316666Y-43879104D01*
X30316666Y-43879104D02*
X30269047Y-44021961D01*
X30269047Y-44021961D02*
X30173809Y-44117200D01*
X30173809Y-44117200D02*
X30030952Y-44164819D01*
X30030952Y-44164819D02*
X29935714Y-44164819D01*
X30697619Y-43164819D02*
X31316666Y-43164819D01*
X31316666Y-43164819D02*
X30983333Y-43545771D01*
X30983333Y-43545771D02*
X31126190Y-43545771D01*
X31126190Y-43545771D02*
X31221428Y-43593390D01*
X31221428Y-43593390D02*
X31269047Y-43641009D01*
X31269047Y-43641009D02*
X31316666Y-43736247D01*
X31316666Y-43736247D02*
X31316666Y-43974342D01*
X31316666Y-43974342D02*
X31269047Y-44069580D01*
X31269047Y-44069580D02*
X31221428Y-44117200D01*
X31221428Y-44117200D02*
X31126190Y-44164819D01*
X31126190Y-44164819D02*
X30840476Y-44164819D01*
X30840476Y-44164819D02*
X30745238Y-44117200D01*
X30745238Y-44117200D02*
X30697619Y-44069580D01*
D11*
X27165760Y-50681428D02*
X27203855Y-50567142D01*
X27203855Y-50567142D02*
X27203855Y-50376666D01*
X27203855Y-50376666D02*
X27165760Y-50300475D01*
X27165760Y-50300475D02*
X27127664Y-50262380D01*
X27127664Y-50262380D02*
X27051474Y-50224285D01*
X27051474Y-50224285D02*
X26975283Y-50224285D01*
X26975283Y-50224285D02*
X26899093Y-50262380D01*
X26899093Y-50262380D02*
X26860998Y-50300475D01*
X26860998Y-50300475D02*
X26822902Y-50376666D01*
X26822902Y-50376666D02*
X26784807Y-50529047D01*
X26784807Y-50529047D02*
X26746712Y-50605237D01*
X26746712Y-50605237D02*
X26708617Y-50643332D01*
X26708617Y-50643332D02*
X26632426Y-50681428D01*
X26632426Y-50681428D02*
X26556236Y-50681428D01*
X26556236Y-50681428D02*
X26480045Y-50643332D01*
X26480045Y-50643332D02*
X26441950Y-50605237D01*
X26441950Y-50605237D02*
X26403855Y-50529047D01*
X26403855Y-50529047D02*
X26403855Y-50338570D01*
X26403855Y-50338570D02*
X26441950Y-50224285D01*
X27203855Y-49881427D02*
X26403855Y-49881427D01*
X26403855Y-49881427D02*
X26403855Y-49690951D01*
X26403855Y-49690951D02*
X26441950Y-49576665D01*
X26441950Y-49576665D02*
X26518140Y-49500475D01*
X26518140Y-49500475D02*
X26594331Y-49462380D01*
X26594331Y-49462380D02*
X26746712Y-49424284D01*
X26746712Y-49424284D02*
X26860998Y-49424284D01*
X26860998Y-49424284D02*
X27013379Y-49462380D01*
X27013379Y-49462380D02*
X27089569Y-49500475D01*
X27089569Y-49500475D02*
X27165760Y-49576665D01*
X27165760Y-49576665D02*
X27203855Y-49690951D01*
X27203855Y-49690951D02*
X27203855Y-49881427D01*
X26975283Y-49119523D02*
X26975283Y-48738570D01*
X27203855Y-49195713D02*
X26403855Y-48929046D01*
X26403855Y-48929046D02*
X27203855Y-48662380D01*
X29705760Y-50662381D02*
X29743855Y-50548095D01*
X29743855Y-50548095D02*
X29743855Y-50357619D01*
X29743855Y-50357619D02*
X29705760Y-50281428D01*
X29705760Y-50281428D02*
X29667664Y-50243333D01*
X29667664Y-50243333D02*
X29591474Y-50205238D01*
X29591474Y-50205238D02*
X29515283Y-50205238D01*
X29515283Y-50205238D02*
X29439093Y-50243333D01*
X29439093Y-50243333D02*
X29400998Y-50281428D01*
X29400998Y-50281428D02*
X29362902Y-50357619D01*
X29362902Y-50357619D02*
X29324807Y-50510000D01*
X29324807Y-50510000D02*
X29286712Y-50586190D01*
X29286712Y-50586190D02*
X29248617Y-50624285D01*
X29248617Y-50624285D02*
X29172426Y-50662381D01*
X29172426Y-50662381D02*
X29096236Y-50662381D01*
X29096236Y-50662381D02*
X29020045Y-50624285D01*
X29020045Y-50624285D02*
X28981950Y-50586190D01*
X28981950Y-50586190D02*
X28943855Y-50510000D01*
X28943855Y-50510000D02*
X28943855Y-50319523D01*
X28943855Y-50319523D02*
X28981950Y-50205238D01*
X29667664Y-49405237D02*
X29705760Y-49443333D01*
X29705760Y-49443333D02*
X29743855Y-49557618D01*
X29743855Y-49557618D02*
X29743855Y-49633809D01*
X29743855Y-49633809D02*
X29705760Y-49748095D01*
X29705760Y-49748095D02*
X29629569Y-49824285D01*
X29629569Y-49824285D02*
X29553379Y-49862380D01*
X29553379Y-49862380D02*
X29400998Y-49900476D01*
X29400998Y-49900476D02*
X29286712Y-49900476D01*
X29286712Y-49900476D02*
X29134331Y-49862380D01*
X29134331Y-49862380D02*
X29058140Y-49824285D01*
X29058140Y-49824285D02*
X28981950Y-49748095D01*
X28981950Y-49748095D02*
X28943855Y-49633809D01*
X28943855Y-49633809D02*
X28943855Y-49557618D01*
X28943855Y-49557618D02*
X28981950Y-49443333D01*
X28981950Y-49443333D02*
X29020045Y-49405237D01*
X29743855Y-48681428D02*
X29743855Y-49062380D01*
X29743855Y-49062380D02*
X28943855Y-49062380D01*
X31483855Y-49862380D02*
X31483855Y-50243332D01*
X31483855Y-50243332D02*
X31864807Y-50281428D01*
X31864807Y-50281428D02*
X31826712Y-50243332D01*
X31826712Y-50243332D02*
X31788617Y-50167142D01*
X31788617Y-50167142D02*
X31788617Y-49976666D01*
X31788617Y-49976666D02*
X31826712Y-49900475D01*
X31826712Y-49900475D02*
X31864807Y-49862380D01*
X31864807Y-49862380D02*
X31940998Y-49824285D01*
X31940998Y-49824285D02*
X32131474Y-49824285D01*
X32131474Y-49824285D02*
X32207664Y-49862380D01*
X32207664Y-49862380D02*
X32245760Y-49900475D01*
X32245760Y-49900475D02*
X32283855Y-49976666D01*
X32283855Y-49976666D02*
X32283855Y-50167142D01*
X32283855Y-50167142D02*
X32245760Y-50243332D01*
X32245760Y-50243332D02*
X32207664Y-50281428D01*
X31483855Y-49595713D02*
X32283855Y-49329046D01*
X32283855Y-49329046D02*
X31483855Y-49062380D01*
X34061950Y-50319523D02*
X34023855Y-50395713D01*
X34023855Y-50395713D02*
X34023855Y-50509999D01*
X34023855Y-50509999D02*
X34061950Y-50624285D01*
X34061950Y-50624285D02*
X34138140Y-50700475D01*
X34138140Y-50700475D02*
X34214331Y-50738570D01*
X34214331Y-50738570D02*
X34366712Y-50776666D01*
X34366712Y-50776666D02*
X34480998Y-50776666D01*
X34480998Y-50776666D02*
X34633379Y-50738570D01*
X34633379Y-50738570D02*
X34709569Y-50700475D01*
X34709569Y-50700475D02*
X34785760Y-50624285D01*
X34785760Y-50624285D02*
X34823855Y-50509999D01*
X34823855Y-50509999D02*
X34823855Y-50433808D01*
X34823855Y-50433808D02*
X34785760Y-50319523D01*
X34785760Y-50319523D02*
X34747664Y-50281427D01*
X34747664Y-50281427D02*
X34480998Y-50281427D01*
X34480998Y-50281427D02*
X34480998Y-50433808D01*
X34823855Y-49938570D02*
X34023855Y-49938570D01*
X34023855Y-49938570D02*
X34823855Y-49481427D01*
X34823855Y-49481427D02*
X34023855Y-49481427D01*
X34823855Y-49100475D02*
X34023855Y-49100475D01*
X34023855Y-49100475D02*
X34023855Y-48909999D01*
X34023855Y-48909999D02*
X34061950Y-48795713D01*
X34061950Y-48795713D02*
X34138140Y-48719523D01*
X34138140Y-48719523D02*
X34214331Y-48681428D01*
X34214331Y-48681428D02*
X34366712Y-48643332D01*
X34366712Y-48643332D02*
X34480998Y-48643332D01*
X34480998Y-48643332D02*
X34633379Y-48681428D01*
X34633379Y-48681428D02*
X34709569Y-48719523D01*
X34709569Y-48719523D02*
X34785760Y-48795713D01*
X34785760Y-48795713D02*
X34823855Y-48909999D01*
X34823855Y-48909999D02*
X34823855Y-49100475D01*
D10*
X3293333Y-37204819D02*
X2960000Y-36728628D01*
X2721905Y-37204819D02*
X2721905Y-36204819D01*
X2721905Y-36204819D02*
X3102857Y-36204819D01*
X3102857Y-36204819D02*
X3198095Y-36252438D01*
X3198095Y-36252438D02*
X3245714Y-36300057D01*
X3245714Y-36300057D02*
X3293333Y-36395295D01*
X3293333Y-36395295D02*
X3293333Y-36538152D01*
X3293333Y-36538152D02*
X3245714Y-36633390D01*
X3245714Y-36633390D02*
X3198095Y-36681009D01*
X3198095Y-36681009D02*
X3102857Y-36728628D01*
X3102857Y-36728628D02*
X2721905Y-36728628D01*
X4245714Y-37204819D02*
X3674286Y-37204819D01*
X3960000Y-37204819D02*
X3960000Y-36204819D01*
X3960000Y-36204819D02*
X3864762Y-36347676D01*
X3864762Y-36347676D02*
X3769524Y-36442914D01*
X3769524Y-36442914D02*
X3674286Y-36490533D01*
X3293333Y-41204819D02*
X2960000Y-40728628D01*
X2721905Y-41204819D02*
X2721905Y-40204819D01*
X2721905Y-40204819D02*
X3102857Y-40204819D01*
X3102857Y-40204819D02*
X3198095Y-40252438D01*
X3198095Y-40252438D02*
X3245714Y-40300057D01*
X3245714Y-40300057D02*
X3293333Y-40395295D01*
X3293333Y-40395295D02*
X3293333Y-40538152D01*
X3293333Y-40538152D02*
X3245714Y-40633390D01*
X3245714Y-40633390D02*
X3198095Y-40681009D01*
X3198095Y-40681009D02*
X3102857Y-40728628D01*
X3102857Y-40728628D02*
X2721905Y-40728628D01*
X3674286Y-40300057D02*
X3721905Y-40252438D01*
X3721905Y-40252438D02*
X3817143Y-40204819D01*
X3817143Y-40204819D02*
X4055238Y-40204819D01*
X4055238Y-40204819D02*
X4150476Y-40252438D01*
X4150476Y-40252438D02*
X4198095Y-40300057D01*
X4198095Y-40300057D02*
X4245714Y-40395295D01*
X4245714Y-40395295D02*
X4245714Y-40490533D01*
X4245714Y-40490533D02*
X4198095Y-40633390D01*
X4198095Y-40633390D02*
X3626667Y-41204819D01*
X3626667Y-41204819D02*
X4245714Y-41204819D01*
X10293333Y-2149580D02*
X10245714Y-2197200D01*
X10245714Y-2197200D02*
X10102857Y-2244819D01*
X10102857Y-2244819D02*
X10007619Y-2244819D01*
X10007619Y-2244819D02*
X9864762Y-2197200D01*
X9864762Y-2197200D02*
X9769524Y-2101961D01*
X9769524Y-2101961D02*
X9721905Y-2006723D01*
X9721905Y-2006723D02*
X9674286Y-1816247D01*
X9674286Y-1816247D02*
X9674286Y-1673390D01*
X9674286Y-1673390D02*
X9721905Y-1482914D01*
X9721905Y-1482914D02*
X9769524Y-1387676D01*
X9769524Y-1387676D02*
X9864762Y-1292438D01*
X9864762Y-1292438D02*
X10007619Y-1244819D01*
X10007619Y-1244819D02*
X10102857Y-1244819D01*
X10102857Y-1244819D02*
X10245714Y-1292438D01*
X10245714Y-1292438D02*
X10293333Y-1340057D01*
X11245714Y-2244819D02*
X10674286Y-2244819D01*
X10960000Y-2244819D02*
X10960000Y-1244819D01*
X10960000Y-1244819D02*
X10864762Y-1387676D01*
X10864762Y-1387676D02*
X10769524Y-1482914D01*
X10769524Y-1482914D02*
X10674286Y-1530533D01*
%TO.C,U2*%
D11*
X6460000Y-10290000D02*
X14460000Y-10290000D01*
X14460000Y-31290000D01*
X6460000Y-31290000D01*
X6460000Y-10290000D01*
%TD*%
M02*
