%TF.GenerationSoftware,KiCad,Pcbnew,10.0.3*%
%TF.CreationDate,2026-05-26T15:34:36-05:00*%
%TF.ProjectId,slave,736c6176-652e-46b6-9963-61645f706362,1.0*%
%TF.SameCoordinates,Original*%
%TF.FileFunction,Legend,Top*%
%TF.FilePolarity,Positive*%
%FSLAX46Y46*%
G04 Gerber Fmt 4.6, Leading zero omitted, Abs format (unit mm)*
G04 Created by KiCad (PCBNEW 10.0.3) date 2026-05-26 15:34:36*
%MOMM*%
%LPD*%
G01*
G04 APERTURE LIST*
%ADD10C,0.150000*%
%ADD11C,0.120000*%
G04 APERTURE END LIST*
D10*
X10858095Y-1184819D02*
X10858095Y-1994342D01*
X10858095Y-1994342D02*
X10905714Y-2089580D01*
X10905714Y-2089580D02*
X10953333Y-2137200D01*
X10953333Y-2137200D02*
X11048571Y-2184819D01*
X11048571Y-2184819D02*
X11239047Y-2184819D01*
X11239047Y-2184819D02*
X11334285Y-2137200D01*
X11334285Y-2137200D02*
X11381904Y-2089580D01*
X11381904Y-2089580D02*
X11429523Y-1994342D01*
X11429523Y-1994342D02*
X11429523Y-1184819D01*
X12429523Y-2184819D02*
X11858095Y-2184819D01*
X12143809Y-2184819D02*
X12143809Y-1184819D01*
X12143809Y-1184819D02*
X12048571Y-1327676D01*
X12048571Y-1327676D02*
X11953333Y-1422914D01*
X11953333Y-1422914D02*
X11858095Y-1470533D01*
X31178095Y-1184819D02*
X31178095Y-1994342D01*
X31178095Y-1994342D02*
X31225714Y-2089580D01*
X31225714Y-2089580D02*
X31273333Y-2137200D01*
X31273333Y-2137200D02*
X31368571Y-2184819D01*
X31368571Y-2184819D02*
X31559047Y-2184819D01*
X31559047Y-2184819D02*
X31654285Y-2137200D01*
X31654285Y-2137200D02*
X31701904Y-2089580D01*
X31701904Y-2089580D02*
X31749523Y-1994342D01*
X31749523Y-1994342D02*
X31749523Y-1184819D01*
X32178095Y-1280057D02*
X32225714Y-1232438D01*
X32225714Y-1232438D02*
X32320952Y-1184819D01*
X32320952Y-1184819D02*
X32559047Y-1184819D01*
X32559047Y-1184819D02*
X32654285Y-1232438D01*
X32654285Y-1232438D02*
X32701904Y-1280057D01*
X32701904Y-1280057D02*
X32749523Y-1375295D01*
X32749523Y-1375295D02*
X32749523Y-1470533D01*
X32749523Y-1470533D02*
X32701904Y-1613390D01*
X32701904Y-1613390D02*
X32130476Y-2184819D01*
X32130476Y-2184819D02*
X32749523Y-2184819D01*
X51498095Y-1184819D02*
X51498095Y-1994342D01*
X51498095Y-1994342D02*
X51545714Y-2089580D01*
X51545714Y-2089580D02*
X51593333Y-2137200D01*
X51593333Y-2137200D02*
X51688571Y-2184819D01*
X51688571Y-2184819D02*
X51879047Y-2184819D01*
X51879047Y-2184819D02*
X51974285Y-2137200D01*
X51974285Y-2137200D02*
X52021904Y-2089580D01*
X52021904Y-2089580D02*
X52069523Y-1994342D01*
X52069523Y-1994342D02*
X52069523Y-1184819D01*
X52450476Y-1184819D02*
X53069523Y-1184819D01*
X53069523Y-1184819D02*
X52736190Y-1565771D01*
X52736190Y-1565771D02*
X52879047Y-1565771D01*
X52879047Y-1565771D02*
X52974285Y-1613390D01*
X52974285Y-1613390D02*
X53021904Y-1661009D01*
X53021904Y-1661009D02*
X53069523Y-1756247D01*
X53069523Y-1756247D02*
X53069523Y-1994342D01*
X53069523Y-1994342D02*
X53021904Y-2089580D01*
X53021904Y-2089580D02*
X52974285Y-2137200D01*
X52974285Y-2137200D02*
X52879047Y-2184819D01*
X52879047Y-2184819D02*
X52593333Y-2184819D01*
X52593333Y-2184819D02*
X52498095Y-2137200D01*
X52498095Y-2137200D02*
X52450476Y-2089580D01*
X71818095Y-1184819D02*
X71818095Y-1994342D01*
X71818095Y-1994342D02*
X71865714Y-2089580D01*
X71865714Y-2089580D02*
X71913333Y-2137200D01*
X71913333Y-2137200D02*
X72008571Y-2184819D01*
X72008571Y-2184819D02*
X72199047Y-2184819D01*
X72199047Y-2184819D02*
X72294285Y-2137200D01*
X72294285Y-2137200D02*
X72341904Y-2089580D01*
X72341904Y-2089580D02*
X72389523Y-1994342D01*
X72389523Y-1994342D02*
X72389523Y-1184819D01*
X73294285Y-1518152D02*
X73294285Y-2184819D01*
X73056190Y-1137200D02*
X72818095Y-1851485D01*
X72818095Y-1851485D02*
X73437142Y-1851485D01*
X92138095Y-1184819D02*
X92138095Y-1994342D01*
X92138095Y-1994342D02*
X92185714Y-2089580D01*
X92185714Y-2089580D02*
X92233333Y-2137200D01*
X92233333Y-2137200D02*
X92328571Y-2184819D01*
X92328571Y-2184819D02*
X92519047Y-2184819D01*
X92519047Y-2184819D02*
X92614285Y-2137200D01*
X92614285Y-2137200D02*
X92661904Y-2089580D01*
X92661904Y-2089580D02*
X92709523Y-1994342D01*
X92709523Y-1994342D02*
X92709523Y-1184819D01*
X93661904Y-1184819D02*
X93185714Y-1184819D01*
X93185714Y-1184819D02*
X93138095Y-1661009D01*
X93138095Y-1661009D02*
X93185714Y-1613390D01*
X93185714Y-1613390D02*
X93280952Y-1565771D01*
X93280952Y-1565771D02*
X93519047Y-1565771D01*
X93519047Y-1565771D02*
X93614285Y-1613390D01*
X93614285Y-1613390D02*
X93661904Y-1661009D01*
X93661904Y-1661009D02*
X93709523Y-1756247D01*
X93709523Y-1756247D02*
X93709523Y-1994342D01*
X93709523Y-1994342D02*
X93661904Y-2089580D01*
X93661904Y-2089580D02*
X93614285Y-2137200D01*
X93614285Y-2137200D02*
X93519047Y-2184819D01*
X93519047Y-2184819D02*
X93280952Y-2184819D01*
X93280952Y-2184819D02*
X93185714Y-2137200D01*
X93185714Y-2137200D02*
X93138095Y-2089580D01*
X112458095Y-1184819D02*
X112458095Y-1994342D01*
X112458095Y-1994342D02*
X112505714Y-2089580D01*
X112505714Y-2089580D02*
X112553333Y-2137200D01*
X112553333Y-2137200D02*
X112648571Y-2184819D01*
X112648571Y-2184819D02*
X112839047Y-2184819D01*
X112839047Y-2184819D02*
X112934285Y-2137200D01*
X112934285Y-2137200D02*
X112981904Y-2089580D01*
X112981904Y-2089580D02*
X113029523Y-1994342D01*
X113029523Y-1994342D02*
X113029523Y-1184819D01*
X113934285Y-1184819D02*
X113743809Y-1184819D01*
X113743809Y-1184819D02*
X113648571Y-1232438D01*
X113648571Y-1232438D02*
X113600952Y-1280057D01*
X113600952Y-1280057D02*
X113505714Y-1422914D01*
X113505714Y-1422914D02*
X113458095Y-1613390D01*
X113458095Y-1613390D02*
X113458095Y-1994342D01*
X113458095Y-1994342D02*
X113505714Y-2089580D01*
X113505714Y-2089580D02*
X113553333Y-2137200D01*
X113553333Y-2137200D02*
X113648571Y-2184819D01*
X113648571Y-2184819D02*
X113839047Y-2184819D01*
X113839047Y-2184819D02*
X113934285Y-2137200D01*
X113934285Y-2137200D02*
X113981904Y-2089580D01*
X113981904Y-2089580D02*
X114029523Y-1994342D01*
X114029523Y-1994342D02*
X114029523Y-1756247D01*
X114029523Y-1756247D02*
X113981904Y-1661009D01*
X113981904Y-1661009D02*
X113934285Y-1613390D01*
X113934285Y-1613390D02*
X113839047Y-1565771D01*
X113839047Y-1565771D02*
X113648571Y-1565771D01*
X113648571Y-1565771D02*
X113553333Y-1613390D01*
X113553333Y-1613390D02*
X113505714Y-1661009D01*
X113505714Y-1661009D02*
X113458095Y-1756247D01*
X1724819Y-46893333D02*
X2439104Y-46893333D01*
X2439104Y-46893333D02*
X2581961Y-46940952D01*
X2581961Y-46940952D02*
X2677200Y-47036190D01*
X2677200Y-47036190D02*
X2724819Y-47179047D01*
X2724819Y-47179047D02*
X2724819Y-47274285D01*
X2724819Y-45893333D02*
X2724819Y-46464761D01*
X2724819Y-46179047D02*
X1724819Y-46179047D01*
X1724819Y-46179047D02*
X1867676Y-46274285D01*
X1867676Y-46274285D02*
X1962914Y-46369523D01*
X1962914Y-46369523D02*
X2010533Y-46464761D01*
X21377200Y-47583808D02*
X21424819Y-47440951D01*
X21424819Y-47440951D02*
X21424819Y-47202856D01*
X21424819Y-47202856D02*
X21377200Y-47107618D01*
X21377200Y-47107618D02*
X21329580Y-47059999D01*
X21329580Y-47059999D02*
X21234342Y-47012380D01*
X21234342Y-47012380D02*
X21139104Y-47012380D01*
X21139104Y-47012380D02*
X21043866Y-47059999D01*
X21043866Y-47059999D02*
X20996247Y-47107618D01*
X20996247Y-47107618D02*
X20948628Y-47202856D01*
X20948628Y-47202856D02*
X20901009Y-47393332D01*
X20901009Y-47393332D02*
X20853390Y-47488570D01*
X20853390Y-47488570D02*
X20805771Y-47536189D01*
X20805771Y-47536189D02*
X20710533Y-47583808D01*
X20710533Y-47583808D02*
X20615295Y-47583808D01*
X20615295Y-47583808D02*
X20520057Y-47536189D01*
X20520057Y-47536189D02*
X20472438Y-47488570D01*
X20472438Y-47488570D02*
X20424819Y-47393332D01*
X20424819Y-47393332D02*
X20424819Y-47155237D01*
X20424819Y-47155237D02*
X20472438Y-47012380D01*
X21424819Y-46583808D02*
X20424819Y-46583808D01*
X20424819Y-46583808D02*
X20424819Y-46202856D01*
X20424819Y-46202856D02*
X20472438Y-46107618D01*
X20472438Y-46107618D02*
X20520057Y-46059999D01*
X20520057Y-46059999D02*
X20615295Y-46012380D01*
X20615295Y-46012380D02*
X20758152Y-46012380D01*
X20758152Y-46012380D02*
X20853390Y-46059999D01*
X20853390Y-46059999D02*
X20901009Y-46107618D01*
X20901009Y-46107618D02*
X20948628Y-46202856D01*
X20948628Y-46202856D02*
X20948628Y-46583808D01*
X21424819Y-45583808D02*
X20424819Y-45583808D01*
X22044819Y-46893333D02*
X22759104Y-46893333D01*
X22759104Y-46893333D02*
X22901961Y-46940952D01*
X22901961Y-46940952D02*
X22997200Y-47036190D01*
X22997200Y-47036190D02*
X23044819Y-47179047D01*
X23044819Y-47179047D02*
X23044819Y-47274285D01*
X22140057Y-46464761D02*
X22092438Y-46417142D01*
X22092438Y-46417142D02*
X22044819Y-46321904D01*
X22044819Y-46321904D02*
X22044819Y-46083809D01*
X22044819Y-46083809D02*
X22092438Y-45988571D01*
X22092438Y-45988571D02*
X22140057Y-45940952D01*
X22140057Y-45940952D02*
X22235295Y-45893333D01*
X22235295Y-45893333D02*
X22330533Y-45893333D01*
X22330533Y-45893333D02*
X22473390Y-45940952D01*
X22473390Y-45940952D02*
X23044819Y-46512380D01*
X23044819Y-46512380D02*
X23044819Y-45893333D01*
X41697200Y-47583808D02*
X41744819Y-47440951D01*
X41744819Y-47440951D02*
X41744819Y-47202856D01*
X41744819Y-47202856D02*
X41697200Y-47107618D01*
X41697200Y-47107618D02*
X41649580Y-47059999D01*
X41649580Y-47059999D02*
X41554342Y-47012380D01*
X41554342Y-47012380D02*
X41459104Y-47012380D01*
X41459104Y-47012380D02*
X41363866Y-47059999D01*
X41363866Y-47059999D02*
X41316247Y-47107618D01*
X41316247Y-47107618D02*
X41268628Y-47202856D01*
X41268628Y-47202856D02*
X41221009Y-47393332D01*
X41221009Y-47393332D02*
X41173390Y-47488570D01*
X41173390Y-47488570D02*
X41125771Y-47536189D01*
X41125771Y-47536189D02*
X41030533Y-47583808D01*
X41030533Y-47583808D02*
X40935295Y-47583808D01*
X40935295Y-47583808D02*
X40840057Y-47536189D01*
X40840057Y-47536189D02*
X40792438Y-47488570D01*
X40792438Y-47488570D02*
X40744819Y-47393332D01*
X40744819Y-47393332D02*
X40744819Y-47155237D01*
X40744819Y-47155237D02*
X40792438Y-47012380D01*
X41744819Y-46583808D02*
X40744819Y-46583808D01*
X40744819Y-46583808D02*
X40744819Y-46202856D01*
X40744819Y-46202856D02*
X40792438Y-46107618D01*
X40792438Y-46107618D02*
X40840057Y-46059999D01*
X40840057Y-46059999D02*
X40935295Y-46012380D01*
X40935295Y-46012380D02*
X41078152Y-46012380D01*
X41078152Y-46012380D02*
X41173390Y-46059999D01*
X41173390Y-46059999D02*
X41221009Y-46107618D01*
X41221009Y-46107618D02*
X41268628Y-46202856D01*
X41268628Y-46202856D02*
X41268628Y-46583808D01*
X41744819Y-45583808D02*
X40744819Y-45583808D01*
X42364819Y-46893333D02*
X43079104Y-46893333D01*
X43079104Y-46893333D02*
X43221961Y-46940952D01*
X43221961Y-46940952D02*
X43317200Y-47036190D01*
X43317200Y-47036190D02*
X43364819Y-47179047D01*
X43364819Y-47179047D02*
X43364819Y-47274285D01*
X42364819Y-46512380D02*
X42364819Y-45893333D01*
X42364819Y-45893333D02*
X42745771Y-46226666D01*
X42745771Y-46226666D02*
X42745771Y-46083809D01*
X42745771Y-46083809D02*
X42793390Y-45988571D01*
X42793390Y-45988571D02*
X42841009Y-45940952D01*
X42841009Y-45940952D02*
X42936247Y-45893333D01*
X42936247Y-45893333D02*
X43174342Y-45893333D01*
X43174342Y-45893333D02*
X43269580Y-45940952D01*
X43269580Y-45940952D02*
X43317200Y-45988571D01*
X43317200Y-45988571D02*
X43364819Y-46083809D01*
X43364819Y-46083809D02*
X43364819Y-46369523D01*
X43364819Y-46369523D02*
X43317200Y-46464761D01*
X43317200Y-46464761D02*
X43269580Y-46512380D01*
X62017200Y-47583808D02*
X62064819Y-47440951D01*
X62064819Y-47440951D02*
X62064819Y-47202856D01*
X62064819Y-47202856D02*
X62017200Y-47107618D01*
X62017200Y-47107618D02*
X61969580Y-47059999D01*
X61969580Y-47059999D02*
X61874342Y-47012380D01*
X61874342Y-47012380D02*
X61779104Y-47012380D01*
X61779104Y-47012380D02*
X61683866Y-47059999D01*
X61683866Y-47059999D02*
X61636247Y-47107618D01*
X61636247Y-47107618D02*
X61588628Y-47202856D01*
X61588628Y-47202856D02*
X61541009Y-47393332D01*
X61541009Y-47393332D02*
X61493390Y-47488570D01*
X61493390Y-47488570D02*
X61445771Y-47536189D01*
X61445771Y-47536189D02*
X61350533Y-47583808D01*
X61350533Y-47583808D02*
X61255295Y-47583808D01*
X61255295Y-47583808D02*
X61160057Y-47536189D01*
X61160057Y-47536189D02*
X61112438Y-47488570D01*
X61112438Y-47488570D02*
X61064819Y-47393332D01*
X61064819Y-47393332D02*
X61064819Y-47155237D01*
X61064819Y-47155237D02*
X61112438Y-47012380D01*
X62064819Y-46583808D02*
X61064819Y-46583808D01*
X61064819Y-46583808D02*
X61064819Y-46202856D01*
X61064819Y-46202856D02*
X61112438Y-46107618D01*
X61112438Y-46107618D02*
X61160057Y-46059999D01*
X61160057Y-46059999D02*
X61255295Y-46012380D01*
X61255295Y-46012380D02*
X61398152Y-46012380D01*
X61398152Y-46012380D02*
X61493390Y-46059999D01*
X61493390Y-46059999D02*
X61541009Y-46107618D01*
X61541009Y-46107618D02*
X61588628Y-46202856D01*
X61588628Y-46202856D02*
X61588628Y-46583808D01*
X62064819Y-45583808D02*
X61064819Y-45583808D01*
X62684819Y-46893333D02*
X63399104Y-46893333D01*
X63399104Y-46893333D02*
X63541961Y-46940952D01*
X63541961Y-46940952D02*
X63637200Y-47036190D01*
X63637200Y-47036190D02*
X63684819Y-47179047D01*
X63684819Y-47179047D02*
X63684819Y-47274285D01*
X63018152Y-45988571D02*
X63684819Y-45988571D01*
X62637200Y-46226666D02*
X63351485Y-46464761D01*
X63351485Y-46464761D02*
X63351485Y-45845714D01*
X82337200Y-47583808D02*
X82384819Y-47440951D01*
X82384819Y-47440951D02*
X82384819Y-47202856D01*
X82384819Y-47202856D02*
X82337200Y-47107618D01*
X82337200Y-47107618D02*
X82289580Y-47059999D01*
X82289580Y-47059999D02*
X82194342Y-47012380D01*
X82194342Y-47012380D02*
X82099104Y-47012380D01*
X82099104Y-47012380D02*
X82003866Y-47059999D01*
X82003866Y-47059999D02*
X81956247Y-47107618D01*
X81956247Y-47107618D02*
X81908628Y-47202856D01*
X81908628Y-47202856D02*
X81861009Y-47393332D01*
X81861009Y-47393332D02*
X81813390Y-47488570D01*
X81813390Y-47488570D02*
X81765771Y-47536189D01*
X81765771Y-47536189D02*
X81670533Y-47583808D01*
X81670533Y-47583808D02*
X81575295Y-47583808D01*
X81575295Y-47583808D02*
X81480057Y-47536189D01*
X81480057Y-47536189D02*
X81432438Y-47488570D01*
X81432438Y-47488570D02*
X81384819Y-47393332D01*
X81384819Y-47393332D02*
X81384819Y-47155237D01*
X81384819Y-47155237D02*
X81432438Y-47012380D01*
X82384819Y-46583808D02*
X81384819Y-46583808D01*
X81384819Y-46583808D02*
X81384819Y-46202856D01*
X81384819Y-46202856D02*
X81432438Y-46107618D01*
X81432438Y-46107618D02*
X81480057Y-46059999D01*
X81480057Y-46059999D02*
X81575295Y-46012380D01*
X81575295Y-46012380D02*
X81718152Y-46012380D01*
X81718152Y-46012380D02*
X81813390Y-46059999D01*
X81813390Y-46059999D02*
X81861009Y-46107618D01*
X81861009Y-46107618D02*
X81908628Y-46202856D01*
X81908628Y-46202856D02*
X81908628Y-46583808D01*
X82384819Y-45583808D02*
X81384819Y-45583808D01*
X83004819Y-46893333D02*
X83719104Y-46893333D01*
X83719104Y-46893333D02*
X83861961Y-46940952D01*
X83861961Y-46940952D02*
X83957200Y-47036190D01*
X83957200Y-47036190D02*
X84004819Y-47179047D01*
X84004819Y-47179047D02*
X84004819Y-47274285D01*
X83004819Y-45940952D02*
X83004819Y-46417142D01*
X83004819Y-46417142D02*
X83481009Y-46464761D01*
X83481009Y-46464761D02*
X83433390Y-46417142D01*
X83433390Y-46417142D02*
X83385771Y-46321904D01*
X83385771Y-46321904D02*
X83385771Y-46083809D01*
X83385771Y-46083809D02*
X83433390Y-45988571D01*
X83433390Y-45988571D02*
X83481009Y-45940952D01*
X83481009Y-45940952D02*
X83576247Y-45893333D01*
X83576247Y-45893333D02*
X83814342Y-45893333D01*
X83814342Y-45893333D02*
X83909580Y-45940952D01*
X83909580Y-45940952D02*
X83957200Y-45988571D01*
X83957200Y-45988571D02*
X84004819Y-46083809D01*
X84004819Y-46083809D02*
X84004819Y-46321904D01*
X84004819Y-46321904D02*
X83957200Y-46417142D01*
X83957200Y-46417142D02*
X83909580Y-46464761D01*
X102657200Y-47583808D02*
X102704819Y-47440951D01*
X102704819Y-47440951D02*
X102704819Y-47202856D01*
X102704819Y-47202856D02*
X102657200Y-47107618D01*
X102657200Y-47107618D02*
X102609580Y-47059999D01*
X102609580Y-47059999D02*
X102514342Y-47012380D01*
X102514342Y-47012380D02*
X102419104Y-47012380D01*
X102419104Y-47012380D02*
X102323866Y-47059999D01*
X102323866Y-47059999D02*
X102276247Y-47107618D01*
X102276247Y-47107618D02*
X102228628Y-47202856D01*
X102228628Y-47202856D02*
X102181009Y-47393332D01*
X102181009Y-47393332D02*
X102133390Y-47488570D01*
X102133390Y-47488570D02*
X102085771Y-47536189D01*
X102085771Y-47536189D02*
X101990533Y-47583808D01*
X101990533Y-47583808D02*
X101895295Y-47583808D01*
X101895295Y-47583808D02*
X101800057Y-47536189D01*
X101800057Y-47536189D02*
X101752438Y-47488570D01*
X101752438Y-47488570D02*
X101704819Y-47393332D01*
X101704819Y-47393332D02*
X101704819Y-47155237D01*
X101704819Y-47155237D02*
X101752438Y-47012380D01*
X102704819Y-46583808D02*
X101704819Y-46583808D01*
X101704819Y-46583808D02*
X101704819Y-46202856D01*
X101704819Y-46202856D02*
X101752438Y-46107618D01*
X101752438Y-46107618D02*
X101800057Y-46059999D01*
X101800057Y-46059999D02*
X101895295Y-46012380D01*
X101895295Y-46012380D02*
X102038152Y-46012380D01*
X102038152Y-46012380D02*
X102133390Y-46059999D01*
X102133390Y-46059999D02*
X102181009Y-46107618D01*
X102181009Y-46107618D02*
X102228628Y-46202856D01*
X102228628Y-46202856D02*
X102228628Y-46583808D01*
X102704819Y-45583808D02*
X101704819Y-45583808D01*
X103324819Y-46893333D02*
X104039104Y-46893333D01*
X104039104Y-46893333D02*
X104181961Y-46940952D01*
X104181961Y-46940952D02*
X104277200Y-47036190D01*
X104277200Y-47036190D02*
X104324819Y-47179047D01*
X104324819Y-47179047D02*
X104324819Y-47274285D01*
X103324819Y-45988571D02*
X103324819Y-46179047D01*
X103324819Y-46179047D02*
X103372438Y-46274285D01*
X103372438Y-46274285D02*
X103420057Y-46321904D01*
X103420057Y-46321904D02*
X103562914Y-46417142D01*
X103562914Y-46417142D02*
X103753390Y-46464761D01*
X103753390Y-46464761D02*
X104134342Y-46464761D01*
X104134342Y-46464761D02*
X104229580Y-46417142D01*
X104229580Y-46417142D02*
X104277200Y-46369523D01*
X104277200Y-46369523D02*
X104324819Y-46274285D01*
X104324819Y-46274285D02*
X104324819Y-46083809D01*
X104324819Y-46083809D02*
X104277200Y-45988571D01*
X104277200Y-45988571D02*
X104229580Y-45940952D01*
X104229580Y-45940952D02*
X104134342Y-45893333D01*
X104134342Y-45893333D02*
X103896247Y-45893333D01*
X103896247Y-45893333D02*
X103801009Y-45940952D01*
X103801009Y-45940952D02*
X103753390Y-45988571D01*
X103753390Y-45988571D02*
X103705771Y-46083809D01*
X103705771Y-46083809D02*
X103705771Y-46274285D01*
X103705771Y-46274285D02*
X103753390Y-46369523D01*
X103753390Y-46369523D02*
X103801009Y-46417142D01*
X103801009Y-46417142D02*
X103896247Y-46464761D01*
X122977200Y-47583808D02*
X123024819Y-47440951D01*
X123024819Y-47440951D02*
X123024819Y-47202856D01*
X123024819Y-47202856D02*
X122977200Y-47107618D01*
X122977200Y-47107618D02*
X122929580Y-47059999D01*
X122929580Y-47059999D02*
X122834342Y-47012380D01*
X122834342Y-47012380D02*
X122739104Y-47012380D01*
X122739104Y-47012380D02*
X122643866Y-47059999D01*
X122643866Y-47059999D02*
X122596247Y-47107618D01*
X122596247Y-47107618D02*
X122548628Y-47202856D01*
X122548628Y-47202856D02*
X122501009Y-47393332D01*
X122501009Y-47393332D02*
X122453390Y-47488570D01*
X122453390Y-47488570D02*
X122405771Y-47536189D01*
X122405771Y-47536189D02*
X122310533Y-47583808D01*
X122310533Y-47583808D02*
X122215295Y-47583808D01*
X122215295Y-47583808D02*
X122120057Y-47536189D01*
X122120057Y-47536189D02*
X122072438Y-47488570D01*
X122072438Y-47488570D02*
X122024819Y-47393332D01*
X122024819Y-47393332D02*
X122024819Y-47155237D01*
X122024819Y-47155237D02*
X122072438Y-47012380D01*
X123024819Y-46583808D02*
X122024819Y-46583808D01*
X122024819Y-46583808D02*
X122024819Y-46202856D01*
X122024819Y-46202856D02*
X122072438Y-46107618D01*
X122072438Y-46107618D02*
X122120057Y-46059999D01*
X122120057Y-46059999D02*
X122215295Y-46012380D01*
X122215295Y-46012380D02*
X122358152Y-46012380D01*
X122358152Y-46012380D02*
X122453390Y-46059999D01*
X122453390Y-46059999D02*
X122501009Y-46107618D01*
X122501009Y-46107618D02*
X122548628Y-46202856D01*
X122548628Y-46202856D02*
X122548628Y-46583808D01*
X123024819Y-45583808D02*
X122024819Y-45583808D01*
X126506666Y-16424819D02*
X126506666Y-17139104D01*
X126506666Y-17139104D02*
X126459047Y-17281961D01*
X126459047Y-17281961D02*
X126363809Y-17377200D01*
X126363809Y-17377200D02*
X126220952Y-17424819D01*
X126220952Y-17424819D02*
X126125714Y-17424819D01*
X126887619Y-16424819D02*
X127554285Y-16424819D01*
X127554285Y-16424819D02*
X127125714Y-17424819D01*
X125863810Y-33584819D02*
X125863810Y-32584819D01*
X126292381Y-32680057D02*
X126340000Y-32632438D01*
X126340000Y-32632438D02*
X126435238Y-32584819D01*
X126435238Y-32584819D02*
X126673333Y-32584819D01*
X126673333Y-32584819D02*
X126768571Y-32632438D01*
X126768571Y-32632438D02*
X126816190Y-32680057D01*
X126816190Y-32680057D02*
X126863809Y-32775295D01*
X126863809Y-32775295D02*
X126863809Y-32870533D01*
X126863809Y-32870533D02*
X126816190Y-33013390D01*
X126816190Y-33013390D02*
X126244762Y-33584819D01*
X126244762Y-33584819D02*
X126863809Y-33584819D01*
X127863809Y-33489580D02*
X127816190Y-33537200D01*
X127816190Y-33537200D02*
X127673333Y-33584819D01*
X127673333Y-33584819D02*
X127578095Y-33584819D01*
X127578095Y-33584819D02*
X127435238Y-33537200D01*
X127435238Y-33537200D02*
X127340000Y-33441961D01*
X127340000Y-33441961D02*
X127292381Y-33346723D01*
X127292381Y-33346723D02*
X127244762Y-33156247D01*
X127244762Y-33156247D02*
X127244762Y-33013390D01*
X127244762Y-33013390D02*
X127292381Y-32822914D01*
X127292381Y-32822914D02*
X127340000Y-32727676D01*
X127340000Y-32727676D02*
X127435238Y-32632438D01*
X127435238Y-32632438D02*
X127578095Y-32584819D01*
X127578095Y-32584819D02*
X127673333Y-32584819D01*
X127673333Y-32584819D02*
X127816190Y-32632438D01*
X127816190Y-32632438D02*
X127863809Y-32680057D01*
D11*
X131528470Y-28461950D02*
X131452280Y-28423855D01*
X131452280Y-28423855D02*
X131337994Y-28423855D01*
X131337994Y-28423855D02*
X131223708Y-28461950D01*
X131223708Y-28461950D02*
X131147518Y-28538140D01*
X131147518Y-28538140D02*
X131109423Y-28614331D01*
X131109423Y-28614331D02*
X131071327Y-28766712D01*
X131071327Y-28766712D02*
X131071327Y-28880998D01*
X131071327Y-28880998D02*
X131109423Y-29033379D01*
X131109423Y-29033379D02*
X131147518Y-29109569D01*
X131147518Y-29109569D02*
X131223708Y-29185760D01*
X131223708Y-29185760D02*
X131337994Y-29223855D01*
X131337994Y-29223855D02*
X131414185Y-29223855D01*
X131414185Y-29223855D02*
X131528470Y-29185760D01*
X131528470Y-29185760D02*
X131566566Y-29147664D01*
X131566566Y-29147664D02*
X131566566Y-28880998D01*
X131566566Y-28880998D02*
X131414185Y-28880998D01*
X131909423Y-29223855D02*
X131909423Y-28423855D01*
X131909423Y-28423855D02*
X132366566Y-29223855D01*
X132366566Y-29223855D02*
X132366566Y-28423855D01*
X132747518Y-29223855D02*
X132747518Y-28423855D01*
X132747518Y-28423855D02*
X132937994Y-28423855D01*
X132937994Y-28423855D02*
X133052280Y-28461950D01*
X133052280Y-28461950D02*
X133128470Y-28538140D01*
X133128470Y-28538140D02*
X133166565Y-28614331D01*
X133166565Y-28614331D02*
X133204661Y-28766712D01*
X133204661Y-28766712D02*
X133204661Y-28880998D01*
X133204661Y-28880998D02*
X133166565Y-29033379D01*
X133166565Y-29033379D02*
X133128470Y-29109569D01*
X133128470Y-29109569D02*
X133052280Y-29185760D01*
X133052280Y-29185760D02*
X132937994Y-29223855D01*
X132937994Y-29223855D02*
X132747518Y-29223855D01*
X131490375Y-25883855D02*
X131109423Y-25883855D01*
X131109423Y-25883855D02*
X131071327Y-26264807D01*
X131071327Y-26264807D02*
X131109423Y-26226712D01*
X131109423Y-26226712D02*
X131185613Y-26188617D01*
X131185613Y-26188617D02*
X131376089Y-26188617D01*
X131376089Y-26188617D02*
X131452280Y-26226712D01*
X131452280Y-26226712D02*
X131490375Y-26264807D01*
X131490375Y-26264807D02*
X131528470Y-26340998D01*
X131528470Y-26340998D02*
X131528470Y-26531474D01*
X131528470Y-26531474D02*
X131490375Y-26607664D01*
X131490375Y-26607664D02*
X131452280Y-26645760D01*
X131452280Y-26645760D02*
X131376089Y-26683855D01*
X131376089Y-26683855D02*
X131185613Y-26683855D01*
X131185613Y-26683855D02*
X131109423Y-26645760D01*
X131109423Y-26645760D02*
X131071327Y-26607664D01*
X131757042Y-25883855D02*
X132023709Y-26683855D01*
X132023709Y-26683855D02*
X132290375Y-25883855D01*
X131071327Y-24105760D02*
X131185613Y-24143855D01*
X131185613Y-24143855D02*
X131376089Y-24143855D01*
X131376089Y-24143855D02*
X131452280Y-24105760D01*
X131452280Y-24105760D02*
X131490375Y-24067664D01*
X131490375Y-24067664D02*
X131528470Y-23991474D01*
X131528470Y-23991474D02*
X131528470Y-23915283D01*
X131528470Y-23915283D02*
X131490375Y-23839093D01*
X131490375Y-23839093D02*
X131452280Y-23800998D01*
X131452280Y-23800998D02*
X131376089Y-23762902D01*
X131376089Y-23762902D02*
X131223708Y-23724807D01*
X131223708Y-23724807D02*
X131147518Y-23686712D01*
X131147518Y-23686712D02*
X131109423Y-23648617D01*
X131109423Y-23648617D02*
X131071327Y-23572426D01*
X131071327Y-23572426D02*
X131071327Y-23496236D01*
X131071327Y-23496236D02*
X131109423Y-23420045D01*
X131109423Y-23420045D02*
X131147518Y-23381950D01*
X131147518Y-23381950D02*
X131223708Y-23343855D01*
X131223708Y-23343855D02*
X131414185Y-23343855D01*
X131414185Y-23343855D02*
X131528470Y-23381950D01*
X132328471Y-24067664D02*
X132290375Y-24105760D01*
X132290375Y-24105760D02*
X132176090Y-24143855D01*
X132176090Y-24143855D02*
X132099899Y-24143855D01*
X132099899Y-24143855D02*
X131985613Y-24105760D01*
X131985613Y-24105760D02*
X131909423Y-24029569D01*
X131909423Y-24029569D02*
X131871328Y-23953379D01*
X131871328Y-23953379D02*
X131833232Y-23800998D01*
X131833232Y-23800998D02*
X131833232Y-23686712D01*
X131833232Y-23686712D02*
X131871328Y-23534331D01*
X131871328Y-23534331D02*
X131909423Y-23458140D01*
X131909423Y-23458140D02*
X131985613Y-23381950D01*
X131985613Y-23381950D02*
X132099899Y-23343855D01*
X132099899Y-23343855D02*
X132176090Y-23343855D01*
X132176090Y-23343855D02*
X132290375Y-23381950D01*
X132290375Y-23381950D02*
X132328471Y-23420045D01*
X133052280Y-24143855D02*
X132671328Y-24143855D01*
X132671328Y-24143855D02*
X132671328Y-23343855D01*
X131071327Y-21565760D02*
X131185613Y-21603855D01*
X131185613Y-21603855D02*
X131376089Y-21603855D01*
X131376089Y-21603855D02*
X131452280Y-21565760D01*
X131452280Y-21565760D02*
X131490375Y-21527664D01*
X131490375Y-21527664D02*
X131528470Y-21451474D01*
X131528470Y-21451474D02*
X131528470Y-21375283D01*
X131528470Y-21375283D02*
X131490375Y-21299093D01*
X131490375Y-21299093D02*
X131452280Y-21260998D01*
X131452280Y-21260998D02*
X131376089Y-21222902D01*
X131376089Y-21222902D02*
X131223708Y-21184807D01*
X131223708Y-21184807D02*
X131147518Y-21146712D01*
X131147518Y-21146712D02*
X131109423Y-21108617D01*
X131109423Y-21108617D02*
X131071327Y-21032426D01*
X131071327Y-21032426D02*
X131071327Y-20956236D01*
X131071327Y-20956236D02*
X131109423Y-20880045D01*
X131109423Y-20880045D02*
X131147518Y-20841950D01*
X131147518Y-20841950D02*
X131223708Y-20803855D01*
X131223708Y-20803855D02*
X131414185Y-20803855D01*
X131414185Y-20803855D02*
X131528470Y-20841950D01*
X131871328Y-21603855D02*
X131871328Y-20803855D01*
X131871328Y-20803855D02*
X132061804Y-20803855D01*
X132061804Y-20803855D02*
X132176090Y-20841950D01*
X132176090Y-20841950D02*
X132252280Y-20918140D01*
X132252280Y-20918140D02*
X132290375Y-20994331D01*
X132290375Y-20994331D02*
X132328471Y-21146712D01*
X132328471Y-21146712D02*
X132328471Y-21260998D01*
X132328471Y-21260998D02*
X132290375Y-21413379D01*
X132290375Y-21413379D02*
X132252280Y-21489569D01*
X132252280Y-21489569D02*
X132176090Y-21565760D01*
X132176090Y-21565760D02*
X132061804Y-21603855D01*
X132061804Y-21603855D02*
X131871328Y-21603855D01*
X132633232Y-21375283D02*
X133014185Y-21375283D01*
X132557042Y-21603855D02*
X132823709Y-20803855D01*
X132823709Y-20803855D02*
X133090375Y-21603855D01*
D10*
X128216191Y-46967200D02*
X128359048Y-47014819D01*
X128359048Y-47014819D02*
X128597143Y-47014819D01*
X128597143Y-47014819D02*
X128692381Y-46967200D01*
X128692381Y-46967200D02*
X128740000Y-46919580D01*
X128740000Y-46919580D02*
X128787619Y-46824342D01*
X128787619Y-46824342D02*
X128787619Y-46729104D01*
X128787619Y-46729104D02*
X128740000Y-46633866D01*
X128740000Y-46633866D02*
X128692381Y-46586247D01*
X128692381Y-46586247D02*
X128597143Y-46538628D01*
X128597143Y-46538628D02*
X128406667Y-46491009D01*
X128406667Y-46491009D02*
X128311429Y-46443390D01*
X128311429Y-46443390D02*
X128263810Y-46395771D01*
X128263810Y-46395771D02*
X128216191Y-46300533D01*
X128216191Y-46300533D02*
X128216191Y-46205295D01*
X128216191Y-46205295D02*
X128263810Y-46110057D01*
X128263810Y-46110057D02*
X128311429Y-46062438D01*
X128311429Y-46062438D02*
X128406667Y-46014819D01*
X128406667Y-46014819D02*
X128644762Y-46014819D01*
X128644762Y-46014819D02*
X128787619Y-46062438D01*
X129216191Y-47014819D02*
X129216191Y-46014819D01*
X129216191Y-46014819D02*
X129597143Y-46014819D01*
X129597143Y-46014819D02*
X129692381Y-46062438D01*
X129692381Y-46062438D02*
X129740000Y-46110057D01*
X129740000Y-46110057D02*
X129787619Y-46205295D01*
X129787619Y-46205295D02*
X129787619Y-46348152D01*
X129787619Y-46348152D02*
X129740000Y-46443390D01*
X129740000Y-46443390D02*
X129692381Y-46491009D01*
X129692381Y-46491009D02*
X129597143Y-46538628D01*
X129597143Y-46538628D02*
X129216191Y-46538628D01*
X130216191Y-47014819D02*
X130216191Y-46014819D01*
D11*
X133127664Y-43913433D02*
X133165760Y-43951529D01*
X133165760Y-43951529D02*
X133203855Y-44065814D01*
X133203855Y-44065814D02*
X133203855Y-44142005D01*
X133203855Y-44142005D02*
X133165760Y-44256291D01*
X133165760Y-44256291D02*
X133089569Y-44332481D01*
X133089569Y-44332481D02*
X133013379Y-44370576D01*
X133013379Y-44370576D02*
X132860998Y-44408672D01*
X132860998Y-44408672D02*
X132746712Y-44408672D01*
X132746712Y-44408672D02*
X132594331Y-44370576D01*
X132594331Y-44370576D02*
X132518140Y-44332481D01*
X132518140Y-44332481D02*
X132441950Y-44256291D01*
X132441950Y-44256291D02*
X132403855Y-44142005D01*
X132403855Y-44142005D02*
X132403855Y-44065814D01*
X132403855Y-44065814D02*
X132441950Y-43951529D01*
X132441950Y-43951529D02*
X132480045Y-43913433D01*
X132784807Y-43570576D02*
X132784807Y-43303910D01*
X133203855Y-43189624D02*
X133203855Y-43570576D01*
X133203855Y-43570576D02*
X132403855Y-43570576D01*
X132403855Y-43570576D02*
X132403855Y-43189624D01*
X131327664Y-43913433D02*
X131365760Y-43951529D01*
X131365760Y-43951529D02*
X131403855Y-44065814D01*
X131403855Y-44065814D02*
X131403855Y-44142005D01*
X131403855Y-44142005D02*
X131365760Y-44256291D01*
X131365760Y-44256291D02*
X131289569Y-44332481D01*
X131289569Y-44332481D02*
X131213379Y-44370576D01*
X131213379Y-44370576D02*
X131060998Y-44408672D01*
X131060998Y-44408672D02*
X130946712Y-44408672D01*
X130946712Y-44408672D02*
X130794331Y-44370576D01*
X130794331Y-44370576D02*
X130718140Y-44332481D01*
X130718140Y-44332481D02*
X130641950Y-44256291D01*
X130641950Y-44256291D02*
X130603855Y-44142005D01*
X130603855Y-44142005D02*
X130603855Y-44065814D01*
X130603855Y-44065814D02*
X130641950Y-43951529D01*
X130641950Y-43951529D02*
X130680045Y-43913433D01*
X131365760Y-43608672D02*
X131403855Y-43494386D01*
X131403855Y-43494386D02*
X131403855Y-43303910D01*
X131403855Y-43303910D02*
X131365760Y-43227719D01*
X131365760Y-43227719D02*
X131327664Y-43189624D01*
X131327664Y-43189624D02*
X131251474Y-43151529D01*
X131251474Y-43151529D02*
X131175283Y-43151529D01*
X131175283Y-43151529D02*
X131099093Y-43189624D01*
X131099093Y-43189624D02*
X131060998Y-43227719D01*
X131060998Y-43227719D02*
X131022902Y-43303910D01*
X131022902Y-43303910D02*
X130984807Y-43456291D01*
X130984807Y-43456291D02*
X130946712Y-43532481D01*
X130946712Y-43532481D02*
X130908617Y-43570576D01*
X130908617Y-43570576D02*
X130832426Y-43608672D01*
X130832426Y-43608672D02*
X130756236Y-43608672D01*
X130756236Y-43608672D02*
X130680045Y-43570576D01*
X130680045Y-43570576D02*
X130641950Y-43532481D01*
X130641950Y-43532481D02*
X130603855Y-43456291D01*
X130603855Y-43456291D02*
X130603855Y-43265814D01*
X130603855Y-43265814D02*
X130641950Y-43151529D01*
X131403855Y-42808671D02*
X130603855Y-42808671D01*
X130603855Y-42808671D02*
X131403855Y-42351528D01*
X131403855Y-42351528D02*
X130603855Y-42351528D01*
X129603855Y-44370576D02*
X128803855Y-44370576D01*
X128803855Y-44370576D02*
X129375283Y-44103910D01*
X129375283Y-44103910D02*
X128803855Y-43837243D01*
X128803855Y-43837243D02*
X129603855Y-43837243D01*
X128803855Y-43303909D02*
X128803855Y-43151528D01*
X128803855Y-43151528D02*
X128841950Y-43075338D01*
X128841950Y-43075338D02*
X128918140Y-42999147D01*
X128918140Y-42999147D02*
X129070521Y-42961052D01*
X129070521Y-42961052D02*
X129337188Y-42961052D01*
X129337188Y-42961052D02*
X129489569Y-42999147D01*
X129489569Y-42999147D02*
X129565760Y-43075338D01*
X129565760Y-43075338D02*
X129603855Y-43151528D01*
X129603855Y-43151528D02*
X129603855Y-43303909D01*
X129603855Y-43303909D02*
X129565760Y-43380100D01*
X129565760Y-43380100D02*
X129489569Y-43456290D01*
X129489569Y-43456290D02*
X129337188Y-43494386D01*
X129337188Y-43494386D02*
X129070521Y-43494386D01*
X129070521Y-43494386D02*
X128918140Y-43456290D01*
X128918140Y-43456290D02*
X128841950Y-43380100D01*
X128841950Y-43380100D02*
X128803855Y-43303909D01*
X129565760Y-42656291D02*
X129603855Y-42542005D01*
X129603855Y-42542005D02*
X129603855Y-42351529D01*
X129603855Y-42351529D02*
X129565760Y-42275338D01*
X129565760Y-42275338D02*
X129527664Y-42237243D01*
X129527664Y-42237243D02*
X129451474Y-42199148D01*
X129451474Y-42199148D02*
X129375283Y-42199148D01*
X129375283Y-42199148D02*
X129299093Y-42237243D01*
X129299093Y-42237243D02*
X129260998Y-42275338D01*
X129260998Y-42275338D02*
X129222902Y-42351529D01*
X129222902Y-42351529D02*
X129184807Y-42503910D01*
X129184807Y-42503910D02*
X129146712Y-42580100D01*
X129146712Y-42580100D02*
X129108617Y-42618195D01*
X129108617Y-42618195D02*
X129032426Y-42656291D01*
X129032426Y-42656291D02*
X128956236Y-42656291D01*
X128956236Y-42656291D02*
X128880045Y-42618195D01*
X128880045Y-42618195D02*
X128841950Y-42580100D01*
X128841950Y-42580100D02*
X128803855Y-42503910D01*
X128803855Y-42503910D02*
X128803855Y-42313433D01*
X128803855Y-42313433D02*
X128841950Y-42199148D01*
X129603855Y-41856290D02*
X128803855Y-41856290D01*
X127803855Y-44370576D02*
X127003855Y-44370576D01*
X127003855Y-44370576D02*
X127575283Y-44103910D01*
X127575283Y-44103910D02*
X127003855Y-43837243D01*
X127003855Y-43837243D02*
X127803855Y-43837243D01*
X127803855Y-43456290D02*
X127003855Y-43456290D01*
X127765760Y-43113434D02*
X127803855Y-42999148D01*
X127803855Y-42999148D02*
X127803855Y-42808672D01*
X127803855Y-42808672D02*
X127765760Y-42732481D01*
X127765760Y-42732481D02*
X127727664Y-42694386D01*
X127727664Y-42694386D02*
X127651474Y-42656291D01*
X127651474Y-42656291D02*
X127575283Y-42656291D01*
X127575283Y-42656291D02*
X127499093Y-42694386D01*
X127499093Y-42694386D02*
X127460998Y-42732481D01*
X127460998Y-42732481D02*
X127422902Y-42808672D01*
X127422902Y-42808672D02*
X127384807Y-42961053D01*
X127384807Y-42961053D02*
X127346712Y-43037243D01*
X127346712Y-43037243D02*
X127308617Y-43075338D01*
X127308617Y-43075338D02*
X127232426Y-43113434D01*
X127232426Y-43113434D02*
X127156236Y-43113434D01*
X127156236Y-43113434D02*
X127080045Y-43075338D01*
X127080045Y-43075338D02*
X127041950Y-43037243D01*
X127041950Y-43037243D02*
X127003855Y-42961053D01*
X127003855Y-42961053D02*
X127003855Y-42770576D01*
X127003855Y-42770576D02*
X127041950Y-42656291D01*
X127003855Y-42161052D02*
X127003855Y-42008671D01*
X127003855Y-42008671D02*
X127041950Y-41932481D01*
X127041950Y-41932481D02*
X127118140Y-41856290D01*
X127118140Y-41856290D02*
X127270521Y-41818195D01*
X127270521Y-41818195D02*
X127537188Y-41818195D01*
X127537188Y-41818195D02*
X127689569Y-41856290D01*
X127689569Y-41856290D02*
X127765760Y-41932481D01*
X127765760Y-41932481D02*
X127803855Y-42008671D01*
X127803855Y-42008671D02*
X127803855Y-42161052D01*
X127803855Y-42161052D02*
X127765760Y-42237243D01*
X127765760Y-42237243D02*
X127689569Y-42313433D01*
X127689569Y-42313433D02*
X127537188Y-42351529D01*
X127537188Y-42351529D02*
X127270521Y-42351529D01*
X127270521Y-42351529D02*
X127118140Y-42313433D01*
X127118140Y-42313433D02*
X127041950Y-42237243D01*
X127041950Y-42237243D02*
X127003855Y-42161052D01*
X125965760Y-44408672D02*
X126003855Y-44294386D01*
X126003855Y-44294386D02*
X126003855Y-44103910D01*
X126003855Y-44103910D02*
X125965760Y-44027719D01*
X125965760Y-44027719D02*
X125927664Y-43989624D01*
X125927664Y-43989624D02*
X125851474Y-43951529D01*
X125851474Y-43951529D02*
X125775283Y-43951529D01*
X125775283Y-43951529D02*
X125699093Y-43989624D01*
X125699093Y-43989624D02*
X125660998Y-44027719D01*
X125660998Y-44027719D02*
X125622902Y-44103910D01*
X125622902Y-44103910D02*
X125584807Y-44256291D01*
X125584807Y-44256291D02*
X125546712Y-44332481D01*
X125546712Y-44332481D02*
X125508617Y-44370576D01*
X125508617Y-44370576D02*
X125432426Y-44408672D01*
X125432426Y-44408672D02*
X125356236Y-44408672D01*
X125356236Y-44408672D02*
X125280045Y-44370576D01*
X125280045Y-44370576D02*
X125241950Y-44332481D01*
X125241950Y-44332481D02*
X125203855Y-44256291D01*
X125203855Y-44256291D02*
X125203855Y-44065814D01*
X125203855Y-44065814D02*
X125241950Y-43951529D01*
X125927664Y-43151528D02*
X125965760Y-43189624D01*
X125965760Y-43189624D02*
X126003855Y-43303909D01*
X126003855Y-43303909D02*
X126003855Y-43380100D01*
X126003855Y-43380100D02*
X125965760Y-43494386D01*
X125965760Y-43494386D02*
X125889569Y-43570576D01*
X125889569Y-43570576D02*
X125813379Y-43608671D01*
X125813379Y-43608671D02*
X125660998Y-43646767D01*
X125660998Y-43646767D02*
X125546712Y-43646767D01*
X125546712Y-43646767D02*
X125394331Y-43608671D01*
X125394331Y-43608671D02*
X125318140Y-43570576D01*
X125318140Y-43570576D02*
X125241950Y-43494386D01*
X125241950Y-43494386D02*
X125203855Y-43380100D01*
X125203855Y-43380100D02*
X125203855Y-43303909D01*
X125203855Y-43303909D02*
X125241950Y-43189624D01*
X125241950Y-43189624D02*
X125280045Y-43151528D01*
X126003855Y-42808671D02*
X125203855Y-42808671D01*
X126003855Y-42351528D02*
X125546712Y-42694386D01*
X125203855Y-42351528D02*
X125660998Y-42808671D01*
%TO.C,U1*%
X2500000Y-3730000D02*
X20740000Y-3730000D01*
X20740000Y-43830000D01*
X2500000Y-43830000D01*
X2500000Y-3730000D01*
%TO.C,U2*%
X22820000Y-3730000D02*
X41060000Y-3730000D01*
X41060000Y-43830000D01*
X22820000Y-43830000D01*
X22820000Y-3730000D01*
%TO.C,U3*%
X43140000Y-3730000D02*
X61380000Y-3730000D01*
X61380000Y-43830000D01*
X43140000Y-43830000D01*
X43140000Y-3730000D01*
%TO.C,U4*%
X63460000Y-3730000D02*
X81700000Y-3730000D01*
X81700000Y-43830000D01*
X63460000Y-43830000D01*
X63460000Y-3730000D01*
%TO.C,U5*%
X83780000Y-3730000D02*
X102020000Y-3730000D01*
X102020000Y-43830000D01*
X83780000Y-43830000D01*
X83780000Y-3730000D01*
%TO.C,U6*%
X104100000Y-3730000D02*
X122340000Y-3730000D01*
X122340000Y-43830000D01*
X104100000Y-43830000D01*
X104100000Y-3730000D01*
%TO.C,J1*%
X4270000Y-45060000D02*
X18970000Y-45060000D01*
X18970000Y-48060000D01*
X4270000Y-48060000D01*
X4270000Y-45060000D01*
%TO.C,J2*%
X24590000Y-45060000D02*
X39290000Y-45060000D01*
X39290000Y-48060000D01*
X24590000Y-48060000D01*
X24590000Y-45060000D01*
%TO.C,J3*%
X44910000Y-45060000D02*
X59610000Y-45060000D01*
X59610000Y-48060000D01*
X44910000Y-48060000D01*
X44910000Y-45060000D01*
%TO.C,J4*%
X65230000Y-45060000D02*
X79930000Y-45060000D01*
X79930000Y-48060000D01*
X65230000Y-48060000D01*
X65230000Y-45060000D01*
%TO.C,J5*%
X85550000Y-45060000D02*
X100250000Y-45060000D01*
X100250000Y-48060000D01*
X85550000Y-48060000D01*
X85550000Y-45060000D01*
%TO.C,J6*%
X105870000Y-45060000D02*
X120570000Y-45060000D01*
X120570000Y-48060000D01*
X105870000Y-48060000D01*
X105870000Y-45060000D01*
%TO.C,J7*%
X125340000Y-18970000D02*
X128340000Y-18970000D01*
X128340000Y-31130000D01*
X125340000Y-31130000D01*
X125340000Y-18970000D01*
%TD*%
M02*
