M48
; DRILL file KiCad 10.0.3 date 2026-05-26T15:34:39
; FORMAT={-:-/ absolute / metric / decimal}
; #@! TF.CreationDate,2026-05-26T15:34:39-05:00
; #@! TF.GenerationSoftware,Kicad,Pcbnew,10.0.3
; #@! TF.FileFunction,Plated,1,2,PTH
FMAT,2
METRIC
; #@! TA.AperFunction,Plated,PTH,ComponentDrill
T1C1.000
%
G90
G05
T1
X4.0Y-6.0
X4.0Y-8.54
X4.0Y-11.08
X4.0Y-13.62
X4.0Y-16.16
X4.0Y-18.7
X4.0Y-21.24
X4.0Y-23.78
X4.0Y-26.32
X4.0Y-28.86
X4.0Y-31.4
X4.0Y-33.94
X4.0Y-36.48
X4.0Y-39.02
X4.0Y-41.56
X6.54Y-46.56
X9.08Y-46.56
X11.62Y-46.56
X14.16Y-46.56
X16.7Y-46.56
X19.24Y-6.0
X19.24Y-8.54
X19.24Y-11.08
X19.24Y-13.62
X19.24Y-16.16
X19.24Y-18.7
X19.24Y-21.24
X19.24Y-23.78
X19.24Y-26.32
X19.24Y-28.86
X19.24Y-31.4
X19.24Y-33.94
X19.24Y-36.48
X19.24Y-39.02
X19.24Y-41.56
X24.32Y-6.0
X24.32Y-8.54
X24.32Y-11.08
X24.32Y-13.62
X24.32Y-16.16
X24.32Y-18.7
X24.32Y-21.24
X24.32Y-23.78
X24.32Y-26.32
X24.32Y-28.86
X24.32Y-31.4
X24.32Y-33.94
X24.32Y-36.48
X24.32Y-39.02
X24.32Y-41.56
X26.86Y-46.56
X29.4Y-46.56
X31.94Y-46.56
X34.48Y-46.56
X37.02Y-46.56
X39.56Y-6.0
X39.56Y-8.54
X39.56Y-11.08
X39.56Y-13.62
X39.56Y-16.16
X39.56Y-18.7
X39.56Y-21.24
X39.56Y-23.78
X39.56Y-26.32
X39.56Y-28.86
X39.56Y-31.4
X39.56Y-33.94
X39.56Y-36.48
X39.56Y-39.02
X39.56Y-41.56
X44.64Y-6.0
X44.64Y-8.54
X44.64Y-11.08
X44.64Y-13.62
X44.64Y-16.16
X44.64Y-18.7
X44.64Y-21.24
X44.64Y-23.78
X44.64Y-26.32
X44.64Y-28.86
X44.64Y-31.4
X44.64Y-33.94
X44.64Y-36.48
X44.64Y-39.02
X44.64Y-41.56
X47.18Y-46.56
X49.72Y-46.56
X52.26Y-46.56
X54.8Y-46.56
X57.34Y-46.56
X59.88Y-6.0
X59.88Y-8.54
X59.88Y-11.08
X59.88Y-13.62
X59.88Y-16.16
X59.88Y-18.7
X59.88Y-21.24
X59.88Y-23.78
X59.88Y-26.32
X59.88Y-28.86
X59.88Y-31.4
X59.88Y-33.94
X59.88Y-36.48
X59.88Y-39.02
X59.88Y-41.56
X64.96Y-6.0
X64.96Y-8.54
X64.96Y-11.08
X64.96Y-13.62
X64.96Y-16.16
X64.96Y-18.7
X64.96Y-21.24
X64.96Y-23.78
X64.96Y-26.32
X64.96Y-28.86
X64.96Y-31.4
X64.96Y-33.94
X64.96Y-36.48
X64.96Y-39.02
X64.96Y-41.56
X67.5Y-46.56
X70.04Y-46.56
X72.58Y-46.56
X75.12Y-46.56
X77.66Y-46.56
X80.2Y-6.0
X80.2Y-8.54
X80.2Y-11.08
X80.2Y-13.62
X80.2Y-16.16
X80.2Y-18.7
X80.2Y-21.24
X80.2Y-23.78
X80.2Y-26.32
X80.2Y-28.86
X80.2Y-31.4
X80.2Y-33.94
X80.2Y-36.48
X80.2Y-39.02
X80.2Y-41.56
X85.28Y-6.0
X85.28Y-8.54
X85.28Y-11.08
X85.28Y-13.62
X85.28Y-16.16
X85.28Y-18.7
X85.28Y-21.24
X85.28Y-23.78
X85.28Y-26.32
X85.28Y-28.86
X85.28Y-31.4
X85.28Y-33.94
X85.28Y-36.48
X85.28Y-39.02
X85.28Y-41.56
X87.82Y-46.56
X90.36Y-46.56
X92.9Y-46.56
X95.44Y-46.56
X97.98Y-46.56
X100.52Y-6.0
X100.52Y-8.54
X100.52Y-11.08
X100.52Y-13.62
X100.52Y-16.16
X100.52Y-18.7
X100.52Y-21.24
X100.52Y-23.78
X100.52Y-26.32
X100.52Y-28.86
X100.52Y-31.4
X100.52Y-33.94
X100.52Y-36.48
X100.52Y-39.02
X100.52Y-41.56
X105.6Y-6.0
X105.6Y-8.54
X105.6Y-11.08
X105.6Y-13.62
X105.6Y-16.16
X105.6Y-18.7
X105.6Y-21.24
X105.6Y-23.78
X105.6Y-26.32
X105.6Y-28.86
X105.6Y-31.4
X105.6Y-33.94
X105.6Y-36.48
X105.6Y-39.02
X105.6Y-41.56
X108.14Y-46.56
X110.68Y-46.56
X113.22Y-46.56
X115.76Y-46.56
X118.3Y-46.56
X120.84Y-6.0
X120.84Y-8.54
X120.84Y-11.08
X120.84Y-13.62
X120.84Y-16.16
X120.84Y-18.7
X120.84Y-21.24
X120.84Y-23.78
X120.84Y-26.32
X120.84Y-28.86
X120.84Y-31.4
X120.84Y-33.94
X120.84Y-36.48
X120.84Y-39.02
X120.84Y-41.56
X126.84Y-21.24
X126.84Y-23.78
X126.84Y-26.32
X126.84Y-28.86
M30
