%TF.GenerationSoftware,KiCad,Pcbnew,10.0.3*%
%TF.CreationDate,2026-05-26T15:34:36-05:00*%
%TF.ProjectId,slave,736c6176-652e-46b6-9963-61645f706362,1.0*%
%TF.SameCoordinates,Original*%
%TF.FileFunction,Other,User*%
%FSLAX46Y46*%
G04 Gerber Fmt 4.6, Leading zero omitted, Abs format (unit mm)*
G04 Created by KiCad (PCBNEW 10.0.3) date 2026-05-26 15:34:36*
%MOMM*%
%LPD*%
G01*
G04 APERTURE LIST*
%ADD10C,0.050000*%
G04 APERTURE END LIST*
%TO.C,U1*%
D10*
X2250000Y-3480000D02*
X20990000Y-3480000D01*
X20990000Y-44080000D01*
X2250000Y-44080000D01*
X2250000Y-3480000D01*
%TO.C,U2*%
X22570000Y-3480000D02*
X41310000Y-3480000D01*
X41310000Y-44080000D01*
X22570000Y-44080000D01*
X22570000Y-3480000D01*
%TO.C,U3*%
X42890000Y-3480000D02*
X61630000Y-3480000D01*
X61630000Y-44080000D01*
X42890000Y-44080000D01*
X42890000Y-3480000D01*
%TO.C,U4*%
X63210000Y-3480000D02*
X81950000Y-3480000D01*
X81950000Y-44080000D01*
X63210000Y-44080000D01*
X63210000Y-3480000D01*
%TO.C,U5*%
X83530000Y-3480000D02*
X102270000Y-3480000D01*
X102270000Y-44080000D01*
X83530000Y-44080000D01*
X83530000Y-3480000D01*
%TO.C,U6*%
X103850000Y-3480000D02*
X122590000Y-3480000D01*
X122590000Y-44080000D01*
X103850000Y-44080000D01*
X103850000Y-3480000D01*
%TO.C,J1*%
X4020000Y-44810000D02*
X19220000Y-44810000D01*
X19220000Y-48310000D01*
X4020000Y-48310000D01*
X4020000Y-44810000D01*
%TO.C,J2*%
X24340000Y-44810000D02*
X39540000Y-44810000D01*
X39540000Y-48310000D01*
X24340000Y-48310000D01*
X24340000Y-44810000D01*
%TO.C,J3*%
X44660000Y-44810000D02*
X59860000Y-44810000D01*
X59860000Y-48310000D01*
X44660000Y-48310000D01*
X44660000Y-44810000D01*
%TO.C,J4*%
X64980000Y-44810000D02*
X80180000Y-44810000D01*
X80180000Y-48310000D01*
X64980000Y-48310000D01*
X64980000Y-44810000D01*
%TO.C,J5*%
X85300000Y-44810000D02*
X100500000Y-44810000D01*
X100500000Y-48310000D01*
X85300000Y-48310000D01*
X85300000Y-44810000D01*
%TO.C,J6*%
X105620000Y-44810000D02*
X120820000Y-44810000D01*
X120820000Y-48310000D01*
X105620000Y-48310000D01*
X105620000Y-44810000D01*
%TO.C,J7*%
X125090000Y-18720000D02*
X128590000Y-18720000D01*
X128590000Y-31380000D01*
X125090000Y-31380000D01*
X125090000Y-18720000D01*
%TD*%
M02*
