%TF.GenerationSoftware,KiCad,Pcbnew,10.0.3*%
%TF.CreationDate,2026-05-26T15:34:36-05:00*%
%TF.ProjectId,slave,736c6176-652e-46b6-9963-61645f706362,1.0*%
%TF.SameCoordinates,Original*%
%TF.FileFunction,Copper,L2,Bot*%
%TF.FilePolarity,Positive*%
%FSLAX46Y46*%
G04 Gerber Fmt 4.6, Leading zero omitted, Abs format (unit mm)*
G04 Created by KiCad (PCBNEW 10.0.3) date 2026-05-26 15:34:36*
%MOMM*%
%LPD*%
G01*
G04 APERTURE LIST*
%TA.AperFunction,ComponentPad*%
%ADD10O,1.700000X1.700000*%
%TD*%
%TA.AperFunction,Conductor*%
%ADD11C,0.200000*%
%TD*%
G04 APERTURE END LIST*
D10*
%TO.P,U1,1*%
%TO.N,N/C*%
X4000000Y-41560000D03*
%TO.P,U1,2*%
X4000000Y-39020000D03*
%TO.P,U1,3*%
X4000000Y-36480000D03*
%TO.P,U1,4*%
X4000000Y-33940000D03*
%TO.P,U1,5*%
X4000000Y-31400000D03*
%TO.P,U1,6*%
%TO.N,SCL*%
X4000000Y-28860000D03*
%TO.P,U1,7*%
%TO.N,SDA*%
X4000000Y-26320000D03*
%TO.P,U1,8*%
%TO.N,N/C*%
X4000000Y-23780000D03*
%TO.P,U1,9*%
X4000000Y-21240000D03*
%TO.P,U1,10*%
X4000000Y-18700000D03*
%TO.P,U1,11*%
X4000000Y-16160000D03*
%TO.P,U1,12*%
X4000000Y-13620000D03*
%TO.P,U1,13*%
X4000000Y-11080000D03*
%TO.P,U1,14*%
X4000000Y-8540000D03*
%TO.P,U1,15*%
X4000000Y-6000000D03*
%TO.P,U1,16*%
X19240000Y-6000000D03*
%TO.P,U1,17*%
%TO.N,U1_SCK*%
X19240000Y-8540000D03*
%TO.P,U1,18*%
%TO.N,U1_MISO*%
X19240000Y-11080000D03*
%TO.P,U1,19*%
%TO.N,U1_MOSI*%
X19240000Y-13620000D03*
%TO.P,U1,20*%
%TO.N,U1_CSN*%
X19240000Y-16160000D03*
%TO.P,U1,21*%
%TO.N,U1_CE*%
X19240000Y-18700000D03*
%TO.P,U1,22*%
%TO.N,N/C*%
X19240000Y-21240000D03*
%TO.P,U1,23*%
X19240000Y-23780000D03*
%TO.P,U1,24*%
X19240000Y-26320000D03*
%TO.P,U1,25*%
X19240000Y-28860000D03*
%TO.P,U1,26*%
X19240000Y-31400000D03*
%TO.P,U1,27*%
X19240000Y-33940000D03*
%TO.P,U1,28*%
%TO.N,5V*%
X19240000Y-36480000D03*
%TO.P,U1,29*%
%TO.N,GND*%
X19240000Y-39020000D03*
%TO.P,U1,30*%
%TO.N,N/C*%
X19240000Y-41560000D03*
%TD*%
%TO.P,U2,1*%
%TO.N,N/C*%
X24320000Y-41560000D03*
%TO.P,U2,2*%
X24320000Y-39020000D03*
%TO.P,U2,3*%
X24320000Y-36480000D03*
%TO.P,U2,4*%
X24320000Y-33940000D03*
%TO.P,U2,5*%
X24320000Y-31400000D03*
%TO.P,U2,6*%
%TO.N,SCL*%
X24320000Y-28860000D03*
%TO.P,U2,7*%
%TO.N,SDA*%
X24320000Y-26320000D03*
%TO.P,U2,8*%
%TO.N,N/C*%
X24320000Y-23780000D03*
%TO.P,U2,9*%
X24320000Y-21240000D03*
%TO.P,U2,10*%
X24320000Y-18700000D03*
%TO.P,U2,11*%
X24320000Y-16160000D03*
%TO.P,U2,12*%
X24320000Y-13620000D03*
%TO.P,U2,13*%
X24320000Y-11080000D03*
%TO.P,U2,14*%
X24320000Y-8540000D03*
%TO.P,U2,15*%
X24320000Y-6000000D03*
%TO.P,U2,16*%
X39560000Y-6000000D03*
%TO.P,U2,17*%
%TO.N,U2_SCK*%
X39560000Y-8540000D03*
%TO.P,U2,18*%
%TO.N,U2_MISO*%
X39560000Y-11080000D03*
%TO.P,U2,19*%
%TO.N,U2_MOSI*%
X39560000Y-13620000D03*
%TO.P,U2,20*%
%TO.N,U2_CSN*%
X39560000Y-16160000D03*
%TO.P,U2,21*%
%TO.N,U2_CE*%
X39560000Y-18700000D03*
%TO.P,U2,22*%
%TO.N,N/C*%
X39560000Y-21240000D03*
%TO.P,U2,23*%
X39560000Y-23780000D03*
%TO.P,U2,24*%
X39560000Y-26320000D03*
%TO.P,U2,25*%
X39560000Y-28860000D03*
%TO.P,U2,26*%
X39560000Y-31400000D03*
%TO.P,U2,27*%
X39560000Y-33940000D03*
%TO.P,U2,28*%
%TO.N,5V*%
X39560000Y-36480000D03*
%TO.P,U2,29*%
%TO.N,GND*%
X39560000Y-39020000D03*
%TO.P,U2,30*%
%TO.N,N/C*%
X39560000Y-41560000D03*
%TD*%
%TO.P,U3,1*%
%TO.N,N/C*%
X44640000Y-41560000D03*
%TO.P,U3,2*%
X44640000Y-39020000D03*
%TO.P,U3,3*%
X44640000Y-36480000D03*
%TO.P,U3,4*%
X44640000Y-33940000D03*
%TO.P,U3,5*%
X44640000Y-31400000D03*
%TO.P,U3,6*%
%TO.N,SCL*%
X44640000Y-28860000D03*
%TO.P,U3,7*%
%TO.N,SDA*%
X44640000Y-26320000D03*
%TO.P,U3,8*%
%TO.N,N/C*%
X44640000Y-23780000D03*
%TO.P,U3,9*%
X44640000Y-21240000D03*
%TO.P,U3,10*%
X44640000Y-18700000D03*
%TO.P,U3,11*%
X44640000Y-16160000D03*
%TO.P,U3,12*%
X44640000Y-13620000D03*
%TO.P,U3,13*%
X44640000Y-11080000D03*
%TO.P,U3,14*%
X44640000Y-8540000D03*
%TO.P,U3,15*%
X44640000Y-6000000D03*
%TO.P,U3,16*%
X59880000Y-6000000D03*
%TO.P,U3,17*%
%TO.N,U3_SCK*%
X59880000Y-8540000D03*
%TO.P,U3,18*%
%TO.N,U3_MISO*%
X59880000Y-11080000D03*
%TO.P,U3,19*%
%TO.N,U3_MOSI*%
X59880000Y-13620000D03*
%TO.P,U3,20*%
%TO.N,U3_CSN*%
X59880000Y-16160000D03*
%TO.P,U3,21*%
%TO.N,U3_CE*%
X59880000Y-18700000D03*
%TO.P,U3,22*%
%TO.N,N/C*%
X59880000Y-21240000D03*
%TO.P,U3,23*%
X59880000Y-23780000D03*
%TO.P,U3,24*%
X59880000Y-26320000D03*
%TO.P,U3,25*%
X59880000Y-28860000D03*
%TO.P,U3,26*%
X59880000Y-31400000D03*
%TO.P,U3,27*%
X59880000Y-33940000D03*
%TO.P,U3,28*%
%TO.N,5V*%
X59880000Y-36480000D03*
%TO.P,U3,29*%
%TO.N,GND*%
X59880000Y-39020000D03*
%TO.P,U3,30*%
%TO.N,N/C*%
X59880000Y-41560000D03*
%TD*%
%TO.P,U4,1*%
%TO.N,N/C*%
X64960000Y-41560000D03*
%TO.P,U4,2*%
X64960000Y-39020000D03*
%TO.P,U4,3*%
X64960000Y-36480000D03*
%TO.P,U4,4*%
X64960000Y-33940000D03*
%TO.P,U4,5*%
X64960000Y-31400000D03*
%TO.P,U4,6*%
%TO.N,SCL*%
X64960000Y-28860000D03*
%TO.P,U4,7*%
%TO.N,SDA*%
X64960000Y-26320000D03*
%TO.P,U4,8*%
%TO.N,N/C*%
X64960000Y-23780000D03*
%TO.P,U4,9*%
X64960000Y-21240000D03*
%TO.P,U4,10*%
X64960000Y-18700000D03*
%TO.P,U4,11*%
X64960000Y-16160000D03*
%TO.P,U4,12*%
X64960000Y-13620000D03*
%TO.P,U4,13*%
X64960000Y-11080000D03*
%TO.P,U4,14*%
X64960000Y-8540000D03*
%TO.P,U4,15*%
X64960000Y-6000000D03*
%TO.P,U4,16*%
X80200000Y-6000000D03*
%TO.P,U4,17*%
%TO.N,U4_SCK*%
X80200000Y-8540000D03*
%TO.P,U4,18*%
%TO.N,U4_MISO*%
X80200000Y-11080000D03*
%TO.P,U4,19*%
%TO.N,U4_MOSI*%
X80200000Y-13620000D03*
%TO.P,U4,20*%
%TO.N,U4_CSN*%
X80200000Y-16160000D03*
%TO.P,U4,21*%
%TO.N,U4_CE*%
X80200000Y-18700000D03*
%TO.P,U4,22*%
%TO.N,N/C*%
X80200000Y-21240000D03*
%TO.P,U4,23*%
X80200000Y-23780000D03*
%TO.P,U4,24*%
X80200000Y-26320000D03*
%TO.P,U4,25*%
X80200000Y-28860000D03*
%TO.P,U4,26*%
X80200000Y-31400000D03*
%TO.P,U4,27*%
X80200000Y-33940000D03*
%TO.P,U4,28*%
%TO.N,5V*%
X80200000Y-36480000D03*
%TO.P,U4,29*%
%TO.N,GND*%
X80200000Y-39020000D03*
%TO.P,U4,30*%
%TO.N,N/C*%
X80200000Y-41560000D03*
%TD*%
%TO.P,U5,1*%
%TO.N,N/C*%
X85280000Y-41560000D03*
%TO.P,U5,2*%
X85280000Y-39020000D03*
%TO.P,U5,3*%
X85280000Y-36480000D03*
%TO.P,U5,4*%
X85280000Y-33940000D03*
%TO.P,U5,5*%
X85280000Y-31400000D03*
%TO.P,U5,6*%
%TO.N,SCL*%
X85280000Y-28860000D03*
%TO.P,U5,7*%
%TO.N,SDA*%
X85280000Y-26320000D03*
%TO.P,U5,8*%
%TO.N,N/C*%
X85280000Y-23780000D03*
%TO.P,U5,9*%
X85280000Y-21240000D03*
%TO.P,U5,10*%
X85280000Y-18700000D03*
%TO.P,U5,11*%
X85280000Y-16160000D03*
%TO.P,U5,12*%
X85280000Y-13620000D03*
%TO.P,U5,13*%
X85280000Y-11080000D03*
%TO.P,U5,14*%
X85280000Y-8540000D03*
%TO.P,U5,15*%
X85280000Y-6000000D03*
%TO.P,U5,16*%
X100520000Y-6000000D03*
%TO.P,U5,17*%
%TO.N,U5_SCK*%
X100520000Y-8540000D03*
%TO.P,U5,18*%
%TO.N,U5_MISO*%
X100520000Y-11080000D03*
%TO.P,U5,19*%
%TO.N,U5_MOSI*%
X100520000Y-13620000D03*
%TO.P,U5,20*%
%TO.N,U5_CSN*%
X100520000Y-16160000D03*
%TO.P,U5,21*%
%TO.N,U5_CE*%
X100520000Y-18700000D03*
%TO.P,U5,22*%
%TO.N,N/C*%
X100520000Y-21240000D03*
%TO.P,U5,23*%
X100520000Y-23780000D03*
%TO.P,U5,24*%
X100520000Y-26320000D03*
%TO.P,U5,25*%
X100520000Y-28860000D03*
%TO.P,U5,26*%
X100520000Y-31400000D03*
%TO.P,U5,27*%
X100520000Y-33940000D03*
%TO.P,U5,28*%
%TO.N,5V*%
X100520000Y-36480000D03*
%TO.P,U5,29*%
%TO.N,GND*%
X100520000Y-39020000D03*
%TO.P,U5,30*%
%TO.N,N/C*%
X100520000Y-41560000D03*
%TD*%
%TO.P,U6,1*%
%TO.N,N/C*%
X105600000Y-41560000D03*
%TO.P,U6,2*%
X105600000Y-39020000D03*
%TO.P,U6,3*%
X105600000Y-36480000D03*
%TO.P,U6,4*%
X105600000Y-33940000D03*
%TO.P,U6,5*%
X105600000Y-31400000D03*
%TO.P,U6,6*%
%TO.N,SCL*%
X105600000Y-28860000D03*
%TO.P,U6,7*%
%TO.N,SDA*%
X105600000Y-26320000D03*
%TO.P,U6,8*%
%TO.N,N/C*%
X105600000Y-23780000D03*
%TO.P,U6,9*%
X105600000Y-21240000D03*
%TO.P,U6,10*%
X105600000Y-18700000D03*
%TO.P,U6,11*%
X105600000Y-16160000D03*
%TO.P,U6,12*%
X105600000Y-13620000D03*
%TO.P,U6,13*%
X105600000Y-11080000D03*
%TO.P,U6,14*%
X105600000Y-8540000D03*
%TO.P,U6,15*%
X105600000Y-6000000D03*
%TO.P,U6,16*%
X120840000Y-6000000D03*
%TO.P,U6,17*%
%TO.N,U6_SCK*%
X120840000Y-8540000D03*
%TO.P,U6,18*%
%TO.N,U6_MISO*%
X120840000Y-11080000D03*
%TO.P,U6,19*%
%TO.N,U6_MOSI*%
X120840000Y-13620000D03*
%TO.P,U6,20*%
%TO.N,U6_CSN*%
X120840000Y-16160000D03*
%TO.P,U6,21*%
%TO.N,U6_CE*%
X120840000Y-18700000D03*
%TO.P,U6,22*%
%TO.N,N/C*%
X120840000Y-21240000D03*
%TO.P,U6,23*%
X120840000Y-23780000D03*
%TO.P,U6,24*%
X120840000Y-26320000D03*
%TO.P,U6,25*%
X120840000Y-28860000D03*
%TO.P,U6,26*%
X120840000Y-31400000D03*
%TO.P,U6,27*%
X120840000Y-33940000D03*
%TO.P,U6,28*%
%TO.N,5V*%
X120840000Y-36480000D03*
%TO.P,U6,29*%
%TO.N,GND*%
X120840000Y-39020000D03*
%TO.P,U6,30*%
%TO.N,N/C*%
X120840000Y-41560000D03*
%TD*%
%TO.P,J1,1*%
%TO.N,U1_CE*%
X16700000Y-46560000D03*
%TO.P,J1,2*%
%TO.N,U1_CSN*%
X14160000Y-46560000D03*
%TO.P,J1,3*%
%TO.N,U1_MOSI*%
X11620000Y-46560000D03*
%TO.P,J1,4*%
%TO.N,U1_MISO*%
X9080000Y-46560000D03*
%TO.P,J1,5*%
%TO.N,U1_SCK*%
X6540000Y-46560000D03*
%TD*%
%TO.P,J2,1*%
%TO.N,U2_CE*%
X37020000Y-46560000D03*
%TO.P,J2,2*%
%TO.N,U2_CSN*%
X34480000Y-46560000D03*
%TO.P,J2,3*%
%TO.N,U2_MOSI*%
X31940000Y-46560000D03*
%TO.P,J2,4*%
%TO.N,U2_MISO*%
X29400000Y-46560000D03*
%TO.P,J2,5*%
%TO.N,U2_SCK*%
X26860000Y-46560000D03*
%TD*%
%TO.P,J3,1*%
%TO.N,U3_CE*%
X57340000Y-46560000D03*
%TO.P,J3,2*%
%TO.N,U3_CSN*%
X54800000Y-46560000D03*
%TO.P,J3,3*%
%TO.N,U3_MOSI*%
X52260000Y-46560000D03*
%TO.P,J3,4*%
%TO.N,U3_MISO*%
X49720000Y-46560000D03*
%TO.P,J3,5*%
%TO.N,U3_SCK*%
X47180000Y-46560000D03*
%TD*%
%TO.P,J4,1*%
%TO.N,U4_CE*%
X77660000Y-46560000D03*
%TO.P,J4,2*%
%TO.N,U4_CSN*%
X75120000Y-46560000D03*
%TO.P,J4,3*%
%TO.N,U4_MOSI*%
X72580000Y-46560000D03*
%TO.P,J4,4*%
%TO.N,U4_MISO*%
X70040000Y-46560000D03*
%TO.P,J4,5*%
%TO.N,U4_SCK*%
X67500000Y-46560000D03*
%TD*%
%TO.P,J5,1*%
%TO.N,U5_CE*%
X97980000Y-46560000D03*
%TO.P,J5,2*%
%TO.N,U5_CSN*%
X95440000Y-46560000D03*
%TO.P,J5,3*%
%TO.N,U5_MOSI*%
X92900000Y-46560000D03*
%TO.P,J5,4*%
%TO.N,U5_MISO*%
X90360000Y-46560000D03*
%TO.P,J5,5*%
%TO.N,U5_SCK*%
X87820000Y-46560000D03*
%TD*%
%TO.P,J6,1*%
%TO.N,U6_CE*%
X118300000Y-46560000D03*
%TO.P,J6,2*%
%TO.N,U6_CSN*%
X115760000Y-46560000D03*
%TO.P,J6,3*%
%TO.N,U6_MOSI*%
X113220000Y-46560000D03*
%TO.P,J6,4*%
%TO.N,U6_MISO*%
X110680000Y-46560000D03*
%TO.P,J6,5*%
%TO.N,U6_SCK*%
X108140000Y-46560000D03*
%TD*%
%TO.P,J7,1*%
%TO.N,GND*%
X126840000Y-28860000D03*
%TO.P,J7,2*%
%TO.N,5V*%
X126840000Y-26320000D03*
%TO.P,J7,3*%
%TO.N,SCL*%
X126840000Y-23780000D03*
%TO.P,J7,4*%
%TO.N,SDA*%
X126840000Y-21240000D03*
%TD*%
%TO.N,U6_SCK*%
D11*
X120571500Y-9691700D02*
X120840000Y-9691700D01*
X108140000Y-22123200D02*
X120571500Y-9691700D01*
X108140000Y-46560000D02*
X108140000Y-22123200D01*
X120840000Y-8540000D02*
X120840000Y-9691700D01*
%TO.N,U6_MISO*%
X120571500Y-12231700D02*
X120840000Y-12231700D01*
X110680000Y-22123200D02*
X120571500Y-12231700D01*
X110680000Y-46560000D02*
X110680000Y-22123200D01*
X120840000Y-11080000D02*
X120840000Y-12231700D01*
%TO.N,U6_MOSI*%
X120571500Y-14771700D02*
X120840000Y-14771700D01*
X113220000Y-22123200D02*
X120571500Y-14771700D01*
X113220000Y-46560000D02*
X113220000Y-22123200D01*
X120840000Y-13620000D02*
X120840000Y-14771700D01*
%TO.N,U6_CSN*%
X120571500Y-17311700D02*
X120840000Y-17311700D01*
X115760000Y-22123200D02*
X120571500Y-17311700D01*
X115760000Y-46560000D02*
X115760000Y-22123200D01*
X120840000Y-16160000D02*
X120840000Y-17311700D01*
%TO.N,U6_CE*%
X120571500Y-19851700D02*
X120840000Y-19851700D01*
X118300000Y-22123200D02*
X120571500Y-19851700D01*
X118300000Y-46560000D02*
X118300000Y-22123200D01*
X120840000Y-18700000D02*
X120840000Y-19851700D01*
%TO.N,U5_SCK*%
X100251500Y-9691700D02*
X100520000Y-9691700D01*
X87820000Y-22123200D02*
X100251500Y-9691700D01*
X87820000Y-46560000D02*
X87820000Y-22123200D01*
X100520000Y-8540000D02*
X100520000Y-9691700D01*
%TO.N,U5_MISO*%
X100251500Y-12231700D02*
X100520000Y-12231700D01*
X90360000Y-22123200D02*
X100251500Y-12231700D01*
X90360000Y-46560000D02*
X90360000Y-22123200D01*
X100520000Y-11080000D02*
X100520000Y-12231700D01*
%TO.N,U5_MOSI*%
X100251500Y-14771700D02*
X100520000Y-14771700D01*
X92900000Y-22123200D02*
X100251500Y-14771700D01*
X92900000Y-46560000D02*
X92900000Y-22123200D01*
X100520000Y-13620000D02*
X100520000Y-14771700D01*
%TO.N,U5_CSN*%
X100251500Y-17311700D02*
X100520000Y-17311700D01*
X95440000Y-22123200D02*
X100251500Y-17311700D01*
X95440000Y-46560000D02*
X95440000Y-22123200D01*
X100520000Y-16160000D02*
X100520000Y-17311700D01*
%TO.N,U5_CE*%
X100251500Y-19851700D02*
X100520000Y-19851700D01*
X97980000Y-22123200D02*
X100251500Y-19851700D01*
X97980000Y-46560000D02*
X97980000Y-22123200D01*
X100520000Y-18700000D02*
X100520000Y-19851700D01*
%TO.N,U4_SCK*%
X79931500Y-9691700D02*
X80200000Y-9691700D01*
X67500000Y-22123200D02*
X79931500Y-9691700D01*
X67500000Y-46560000D02*
X67500000Y-22123200D01*
X80200000Y-8540000D02*
X80200000Y-9691700D01*
%TO.N,U4_MISO*%
X79931500Y-12231700D02*
X80200000Y-12231700D01*
X70040000Y-22123200D02*
X79931500Y-12231700D01*
X70040000Y-46560000D02*
X70040000Y-22123200D01*
X80200000Y-11080000D02*
X80200000Y-12231700D01*
%TO.N,U4_MOSI*%
X79931500Y-14771700D02*
X80200000Y-14771700D01*
X72580000Y-22123200D02*
X79931500Y-14771700D01*
X72580000Y-46560000D02*
X72580000Y-22123200D01*
X80200000Y-13620000D02*
X80200000Y-14771700D01*
%TO.N,U4_CSN*%
X79931500Y-17311700D02*
X80200000Y-17311700D01*
X75120000Y-22123200D02*
X79931500Y-17311700D01*
X75120000Y-46560000D02*
X75120000Y-22123200D01*
X80200000Y-16160000D02*
X80200000Y-17311700D01*
%TO.N,U4_CE*%
X79931500Y-19851700D02*
X80200000Y-19851700D01*
X77660000Y-22123200D02*
X79931500Y-19851700D01*
X77660000Y-46560000D02*
X77660000Y-22123200D01*
X80200000Y-18700000D02*
X80200000Y-19851700D01*
%TO.N,U3_SCK*%
X59611500Y-9691700D02*
X59880000Y-9691700D01*
X47180000Y-22123200D02*
X59611500Y-9691700D01*
X47180000Y-46560000D02*
X47180000Y-22123200D01*
X59880000Y-8540000D02*
X59880000Y-9691700D01*
%TO.N,U3_MISO*%
X59611500Y-12231700D02*
X59880000Y-12231700D01*
X49720000Y-22123200D02*
X59611500Y-12231700D01*
X49720000Y-46560000D02*
X49720000Y-22123200D01*
X59880000Y-11080000D02*
X59880000Y-12231700D01*
%TO.N,U3_MOSI*%
X59611500Y-14771700D02*
X59880000Y-14771700D01*
X52260000Y-22123200D02*
X59611500Y-14771700D01*
X52260000Y-46560000D02*
X52260000Y-22123200D01*
X59880000Y-13620000D02*
X59880000Y-14771700D01*
%TO.N,U3_CSN*%
X59611500Y-17311700D02*
X59880000Y-17311700D01*
X54800000Y-22123200D02*
X59611500Y-17311700D01*
X54800000Y-46560000D02*
X54800000Y-22123200D01*
X59880000Y-16160000D02*
X59880000Y-17311700D01*
%TO.N,U3_CE*%
X59611500Y-19851700D02*
X59880000Y-19851700D01*
X57340000Y-22123200D02*
X59611500Y-19851700D01*
X57340000Y-46560000D02*
X57340000Y-22123200D01*
X59880000Y-18700000D02*
X59880000Y-19851700D01*
%TO.N,U2_SCK*%
X39291500Y-9691700D02*
X39560000Y-9691700D01*
X26860000Y-22123200D02*
X39291500Y-9691700D01*
X26860000Y-46560000D02*
X26860000Y-22123200D01*
X39560000Y-8540000D02*
X39560000Y-9691700D01*
%TO.N,U2_MISO*%
X39291500Y-12231700D02*
X39560000Y-12231700D01*
X29400000Y-22123200D02*
X39291500Y-12231700D01*
X29400000Y-46560000D02*
X29400000Y-22123200D01*
X39560000Y-11080000D02*
X39560000Y-12231700D01*
%TO.N,U2_MOSI*%
X39291500Y-14771700D02*
X39560000Y-14771700D01*
X31940000Y-22123200D02*
X39291500Y-14771700D01*
X31940000Y-46560000D02*
X31940000Y-22123200D01*
X39560000Y-13620000D02*
X39560000Y-14771700D01*
%TO.N,U2_CSN*%
X39291500Y-17311700D02*
X39560000Y-17311700D01*
X34480000Y-22123200D02*
X39291500Y-17311700D01*
X34480000Y-46560000D02*
X34480000Y-22123200D01*
X39560000Y-16160000D02*
X39560000Y-17311700D01*
%TO.N,U2_CE*%
X39291500Y-19851700D02*
X39560000Y-19851700D01*
X37020000Y-22123200D02*
X39291500Y-19851700D01*
X37020000Y-46560000D02*
X37020000Y-22123200D01*
X39560000Y-18700000D02*
X39560000Y-19851700D01*
%TO.N,U1_SCK*%
X18971500Y-9691700D02*
X19240000Y-9691700D01*
X6540000Y-22123200D02*
X18971500Y-9691700D01*
X6540000Y-46560000D02*
X6540000Y-22123200D01*
X19240000Y-8540000D02*
X19240000Y-9691700D01*
%TO.N,U1_MISO*%
X18971500Y-12231700D02*
X19240000Y-12231700D01*
X9080000Y-22123200D02*
X18971500Y-12231700D01*
X9080000Y-46560000D02*
X9080000Y-22123200D01*
X19240000Y-11080000D02*
X19240000Y-12231700D01*
%TO.N,U1_MOSI*%
X18971500Y-14771700D02*
X19240000Y-14771700D01*
X11620000Y-22123200D02*
X18971500Y-14771700D01*
X11620000Y-46560000D02*
X11620000Y-22123200D01*
X19240000Y-13620000D02*
X19240000Y-14771700D01*
%TO.N,U1_CSN*%
X18971500Y-17311700D02*
X19240000Y-17311700D01*
X14160000Y-22123200D02*
X18971500Y-17311700D01*
X14160000Y-46560000D02*
X14160000Y-22123200D01*
X19240000Y-16160000D02*
X19240000Y-17311700D01*
%TO.N,U1_CE*%
X18971500Y-19851700D02*
X19240000Y-19851700D01*
X16700000Y-22123200D02*
X18971500Y-19851700D01*
X16700000Y-46560000D02*
X16700000Y-22123200D01*
X19240000Y-18700000D02*
X19240000Y-19851700D01*
%TO.N,5V*%
X127996700Y-30475000D02*
X121991700Y-36480000D01*
X127996700Y-28340500D02*
X127996700Y-30475000D01*
X127127900Y-27471700D02*
X127996700Y-28340500D01*
X126840000Y-27471700D02*
X127127900Y-27471700D01*
X126840000Y-26320000D02*
X126840000Y-27471700D01*
X120840000Y-36480000D02*
X121991700Y-36480000D01*
%TO.N,GND*%
X120571500Y-37868300D02*
X120840000Y-37868300D01*
X119639900Y-36936700D02*
X120571500Y-37868300D01*
X119639900Y-36032000D02*
X119639900Y-36936700D01*
X120461900Y-35210000D02*
X119639900Y-36032000D01*
X121641700Y-35210000D02*
X120461900Y-35210000D01*
X126840000Y-30011700D02*
X121641700Y-35210000D01*
X126840000Y-28860000D02*
X126840000Y-30011700D01*
X120840000Y-39020000D02*
X120840000Y-37868300D01*
%TD*%
M02*
